# MagicaVoxel @ Ephtracy

# group
o 

# material
mtllib ClusterBomb.mtl
usemtl palette

# normals
vn -1 0 0
vn 1 0 0
vn 0 0 1
vn 0 0 -1
vn 0 -1 0
vn 0 1 0

# texcoords
vt 0.0292969 0.5
vt 0.0605469 0.5
vt 0.0917969 0.5
vt 0.138672 0.5
vt 0.994141 0.5

# verts
v -0.5 1.2 0.3
v -0.5 1.2 -0.2
v -0.5 1.4 0.4
v -0.5 1.4 0.3
v -0.5 1.4 -0.2
v -0.5 1.4 -0.3
v -0.5 1.6 0.4
v -0.5 1.6 0.3
v -0.5 1.6 -0.2
v -0.5 1.6 -0.3
v -0.5 1.8 0.3
v -0.5 1.8 -0.2
v -0.4 1.1 0.3
v -0.4 1.1 -0.2
v -0.4 1.2 0.4
v -0.4 1.2 0.3
v -0.4 1.2 -0.2
v -0.4 1.2 -0.3
v -0.4 1.3 0.5
v -0.4 1.3 0.4
v -0.4 1.3 -0.3
v -0.4 1.3 -0.4
v -0.4 1.4 0.4
v -0.4 1.4 0.3
v -0.4 1.4 -0.2
v -0.4 1.4 -0.3
v -0.4 1.6 0.4
v -0.4 1.6 0.3
v -0.4 1.6 -0.2
v -0.4 1.6 -0.3
v -0.4 1.7 0.5
v -0.4 1.7 0.4
v -0.4 1.7 -0.3
v -0.4 1.7 -0.4
v -0.4 1.8 0.4
v -0.4 1.8 0.3
v -0.4 1.8 -0.2
v -0.4 1.8 -0.3
v -0.4 1.9 0.3
v -0.4 1.9 -0.2
v -0.3 1 0.3
v -0.3 1 -0.2
v -0.3 1.1 0.4
v -0.3 1.1 0.3
v -0.3 1.1 -0.2
v -0.3 1.1 -0.3
v -0.3 1.2 0.5
v -0.3 1.2 0.4
v -0.3 1.2 0.3
v -0.3 1.2 -0.2
v -0.3 1.2 -0.3
v -0.3 1.2 -0.4
v -0.3 1.3 0.5
v -0.3 1.3 0.4
v -0.3 1.3 -0.3
v -0.3 1.3 -0.4
v -0.3 1.7 0.5
v -0.3 1.7 0.4
v -0.3 1.7 -0.3
v -0.3 1.7 -0.4
v -0.3 1.8 0.5
v -0.3 1.8 0.4
v -0.3 1.8 0.3
v -0.3 1.8 -0.2
v -0.3 1.8 -0.3
v -0.3 1.8 -0.4
v -0.3 1.9 0.4
v -0.3 1.9 0.3
v -0.3 1.9 -0.2
v -0.3 1.9 -0.3
v -0.3 2 0.3
v -0.3 2 -0.2
v -0.2 1.1 0.5
v -0.2 1.1 0.4
v -0.2 1.1 -0.3
v -0.2 1.1 -0.4
v -0.2 1.2 0.5
v -0.2 1.2 0.4
v -0.2 1.2 -0.3
v -0.2 1.2 -0.4
v -0.2 1.3 0.6
v -0.2 1.3 0.5
v -0.2 1.3 -0.4
v -0.2 1.3 -0.5
v -0.2 1.7 0.6
v -0.2 1.7 0.5
v -0.2 1.7 -0.4
v -0.2 1.7 -0.5
v -0.2 1.8 0.5
v -0.2 1.8 0.4
v -0.2 1.8 -0.3
v -0.2 1.8 -0.4
v -0.2 1.9 0.5
v -0.2 1.9 0.4
v -0.2 1.9 -0.3
v -0.2 1.9 -0.4
v -0.1 1 0.4
v -0.1 1 0.3
v -0.1 1 -0.2
v -0.1 1 -0.3
v -0.1 1.1 0.4
v -0.1 1.1 0.3
v -0.1 1.1 -0.2
v -0.1 1.1 -0.3
v -0.1 1.9 0.4
v -0.1 1.9 0.3
v -0.1 1.9 -0.2
v -0.1 1.9 -0.3
v -0.1 2 0.4
v -0.1 2 0.3
v -0.1 2 -0.2
v -0.1 2 -0.3
v 0 2 0.0999999
v 0 2 -5.96046e-08
v 0 2.1 0.0999999
v 0 2.1 -5.96046e-08
v 0 2.2 0.0999999
v 0 2.2 -5.96046e-08
v 0.1 1 0.4
v 0.1 1 0.3
v 0.1 1 -0.2
v 0.1 1 -0.3
v 0.1 1.1 0.4
v 0.1 1.1 0.3
v 0.1 1.1 -0.2
v 0.1 1.1 -0.3
v 0.1 1.9 0.4
v 0.1 1.9 0.3
v 0.1 1.9 -0.2
v 0.1 1.9 -0.3
v 0.1 2 0.4
v 0.1 2 0.3
v 0.1 2 0.0999999
v 0.1 2 -5.96046e-08
v 0.1 2 -0.2
v 0.1 2 -0.3
v 0.1 2.1 0.0999999
v 0.1 2.1 -5.96046e-08
v 0.2 1.1 0.5
v 0.2 1.1 0.4
v 0.2 1.1 -0.3
v 0.2 1.1 -0.4
v 0.2 1.2 0.5
v 0.2 1.2 0.4
v 0.2 1.2 -0.3
v 0.2 1.2 -0.4
v 0.2 1.3 0.6
v 0.2 1.3 0.5
v 0.2 1.3 -0.4
v 0.2 1.3 -0.5
v 0.2 1.7 0.6
v 0.2 1.7 0.5
v 0.2 1.7 -0.4
v 0.2 1.7 -0.5
v 0.2 1.8 0.5
v 0.2 1.8 0.4
v 0.2 1.8 -0.3
v 0.2 1.8 -0.4
v 0.2 1.9 0.5
v 0.2 1.9 0.4
v 0.2 1.9 -0.3
v 0.2 1.9 -0.4
v 0.2 2.1 0.0999999
v 0.2 2.1 -5.96046e-08
v 0.2 2.2 0.0999999
v 0.2 2.2 -5.96046e-08
v 0.3 1 0.3
v 0.3 1 -0.2
v 0.3 1.1 0.4
v 0.3 1.1 0.3
v 0.3 1.1 -0.2
v 0.3 1.1 -0.3
v 0.3 1.2 0.5
v 0.3 1.2 0.4
v 0.3 1.2 0.3
v 0.3 1.2 -0.2
v 0.3 1.2 -0.3
v 0.3 1.2 -0.4
v 0.3 1.3 0.5
v 0.3 1.3 0.4
v 0.3 1.3 -0.3
v 0.3 1.3 -0.4
v 0.3 1.7 0.5
v 0.3 1.7 0.4
v 0.3 1.7 -0.3
v 0.3 1.7 -0.4
v 0.3 1.8 0.5
v 0.3 1.8 0.4
v 0.3 1.8 0.3
v 0.3 1.8 -0.2
v 0.3 1.8 -0.3
v 0.3 1.8 -0.4
v 0.3 1.9 0.4
v 0.3 1.9 0.3
v 0.3 1.9 -0.2
v 0.3 1.9 -0.3
v 0.3 2 0.3
v 0.3 2 -0.2
v 0.4 1.1 0.3
v 0.4 1.1 -0.2
v 0.4 1.2 0.4
v 0.4 1.2 0.3
v 0.4 1.2 -0.2
v 0.4 1.2 -0.3
v 0.4 1.3 0.5
v 0.4 1.3 0.4
v 0.4 1.3 -0.3
v 0.4 1.3 -0.4
v 0.4 1.4 0.4
v 0.4 1.4 0.3
v 0.4 1.4 -0.2
v 0.4 1.4 -0.3
v 0.4 1.6 0.4
v 0.4 1.6 0.3
v 0.4 1.6 -0.2
v 0.4 1.6 -0.3
v 0.4 1.7 0.5
v 0.4 1.7 0.4
v 0.4 1.7 -0.3
v 0.4 1.7 -0.4
v 0.4 1.8 0.4
v 0.4 1.8 0.3
v 0.4 1.8 -0.2
v 0.4 1.8 -0.3
v 0.4 1.9 0.3
v 0.4 1.9 -0.2
v 0.5 1.2 0.3
v 0.5 1.2 -0.2
v 0.5 1.4 0.4
v 0.5 1.4 0.3
v 0.5 1.4 -0.2
v 0.5 1.4 -0.3
v 0.5 1.6 0.4
v 0.5 1.6 0.3
v 0.5 1.6 -0.2
v 0.5 1.6 -0.3
v 0.5 1.8 0.3
v 0.5 1.8 -0.2
v -0.2 1.3 0.6
v -0.2 1.7 0.6
v 0.2 1.3 0.6
v 0.2 1.7 0.6
v -0.4 1.3 0.5
v -0.4 1.7 0.5
v -0.3 1.2 0.5
v -0.3 1.3 0.5
v -0.3 1.7 0.5
v -0.3 1.8 0.5
v -0.2 1.1 0.5
v -0.2 1.2 0.5
v -0.2 1.3 0.5
v -0.2 1.7 0.5
v -0.2 1.8 0.5
v -0.2 1.9 0.5
v 0.2 1.1 0.5
v 0.2 1.2 0.5
v 0.2 1.3 0.5
v 0.2 1.7 0.5
v 0.2 1.8 0.5
v 0.2 1.9 0.5
v 0.3 1.2 0.5
v 0.3 1.3 0.5
v 0.3 1.7 0.5
v 0.3 1.8 0.5
v 0.4 1.3 0.5
v 0.4 1.7 0.5
v -0.5 1.4 0.4
v -0.5 1.6 0.4
v -0.4 1.2 0.4
v -0.4 1.3 0.4
v -0.4 1.4 0.4
v -0.4 1.6 0.4
v -0.4 1.7 0.4
v -0.4 1.8 0.4
v -0.3 1.1 0.4
v -0.3 1.2 0.4
v -0.3 1.3 0.4
v -0.3 1.7 0.4
v -0.3 1.8 0.4
v -0.3 1.9 0.4
v -0.2 1.1 0.4
v -0.2 1.2 0.4
v -0.2 1.8 0.4
v -0.2 1.9 0.4
v -0.1 1 0.4
v -0.1 1.1 0.4
v -0.1 1.9 0.4
v -0.1 2 0.4
v 0.1 1 0.4
v 0.1 1.1 0.4
v 0.1 1.9 0.4
v 0.1 2 0.4
v 0.2 1.1 0.4
v 0.2 1.2 0.4
v 0.2 1.8 0.4
v 0.2 1.9 0.4
v 0.3 1.1 0.4
v 0.3 1.2 0.4
v 0.3 1.3 0.4
v 0.3 1.7 0.4
v 0.3 1.8 0.4
v 0.3 1.9 0.4
v 0.4 1.2 0.4
v 0.4 1.3 0.4
v 0.4 1.4 0.4
v 0.4 1.6 0.4
v 0.4 1.7 0.4
v 0.4 1.8 0.4
v 0.5 1.4 0.4
v 0.5 1.6 0.4
v -0.5 1.2 0.3
v -0.5 1.4 0.3
v -0.5 1.6 0.3
v -0.5 1.8 0.3
v -0.4 1.1 0.3
v -0.4 1.2 0.3
v -0.4 1.4 0.3
v -0.4 1.6 0.3
v -0.4 1.8 0.3
v -0.4 1.9 0.3
v -0.3 1 0.3
v -0.3 1.1 0.3
v -0.3 1.2 0.3
v -0.3 1.8 0.3
v -0.3 1.9 0.3
v -0.3 2 0.3
v -0.1 1 0.3
v -0.1 1.1 0.3
v -0.1 1.9 0.3
v -0.1 2 0.3
v 0.1 1 0.3
v 0.1 1.1 0.3
v 0.1 1.9 0.3
v 0.1 2 0.3
v 0.3 1 0.3
v 0.3 1.1 0.3
v 0.3 1.2 0.3
v 0.3 1.8 0.3
v 0.3 1.9 0.3
v 0.3 2 0.3
v 0.4 1.1 0.3
v 0.4 1.2 0.3
v 0.4 1.4 0.3
v 0.4 1.6 0.3
v 0.4 1.8 0.3
v 0.4 1.9 0.3
v 0.5 1.2 0.3
v 0.5 1.4 0.3
v 0.5 1.6 0.3
v 0.5 1.8 0.3
v 0 2 0.0999999
v 0 2.1 0.0999999
v 0 2.2 0.0999999
v 0.1 2 0.0999999
v 0.1 2.1 0.0999999
v 0.1 2.2 0.0999999
v 0.2 2.1 0.0999999
v 0.2 2.2 0.0999999
v 0 2 -5.96046e-08
v 0 2.1 -5.96046e-08
v 0 2.2 -5.96046e-08
v 0.1 2 -5.96046e-08
v 0.1 2.1 -5.96046e-08
v 0.1 2.2 -5.96046e-08
v 0.2 2.1 -5.96046e-08
v 0.2 2.2 -5.96046e-08
v -0.5 1.2 -0.2
v -0.5 1.4 -0.2
v -0.5 1.6 -0.2
v -0.5 1.8 -0.2
v -0.4 1.1 -0.2
v -0.4 1.2 -0.2
v -0.4 1.4 -0.2
v -0.4 1.6 -0.2
v -0.4 1.8 -0.2
v -0.4 1.9 -0.2
v -0.3 1 -0.2
v -0.3 1.1 -0.2
v -0.3 1.2 -0.2
v -0.3 1.8 -0.2
v -0.3 1.9 -0.2
v -0.3 2 -0.2
v -0.1 1 -0.2
v -0.1 1.1 -0.2
v -0.1 1.9 -0.2
v -0.1 2 -0.2
v 0.1 1 -0.2
v 0.1 1.1 -0.2
v 0.1 1.9 -0.2
v 0.1 2 -0.2
v 0.3 1 -0.2
v 0.3 1.1 -0.2
v 0.3 1.2 -0.2
v 0.3 1.8 -0.2
v 0.3 1.9 -0.2
v 0.3 2 -0.2
v 0.4 1.1 -0.2
v 0.4 1.2 -0.2
v 0.4 1.4 -0.2
v 0.4 1.6 -0.2
v 0.4 1.8 -0.2
v 0.4 1.9 -0.2
v 0.5 1.2 -0.2
v 0.5 1.4 -0.2
v 0.5 1.6 -0.2
v 0.5 1.8 -0.2
v -0.5 1.4 -0.3
v -0.5 1.6 -0.3
v -0.4 1.2 -0.3
v -0.4 1.3 -0.3
v -0.4 1.4 -0.3
v -0.4 1.6 -0.3
v -0.4 1.7 -0.3
v -0.4 1.8 -0.3
v -0.3 1.1 -0.3
v -0.3 1.2 -0.3
v -0.3 1.3 -0.3
v -0.3 1.7 -0.3
v -0.3 1.8 -0.3
v -0.3 1.9 -0.3
v -0.2 1.1 -0.3
v -0.2 1.2 -0.3
v -0.2 1.8 -0.3
v -0.2 1.9 -0.3
v -0.1 1 -0.3
v -0.1 1.1 -0.3
v -0.1 1.9 -0.3
v -0.1 2 -0.3
v 0.1 1 -0.3
v 0.1 1.1 -0.3
v 0.1 1.9 -0.3
v 0.1 2 -0.3
v 0.2 1.1 -0.3
v 0.2 1.2 -0.3
v 0.2 1.8 -0.3
v 0.2 1.9 -0.3
v 0.3 1.1 -0.3
v 0.3 1.2 -0.3
v 0.3 1.3 -0.3
v 0.3 1.7 -0.3
v 0.3 1.8 -0.3
v 0.3 1.9 -0.3
v 0.4 1.2 -0.3
v 0.4 1.3 -0.3
v 0.4 1.4 -0.3
v 0.4 1.6 -0.3
v 0.4 1.7 -0.3
v 0.4 1.8 -0.3
v 0.5 1.4 -0.3
v 0.5 1.6 -0.3
v -0.4 1.3 -0.4
v -0.4 1.7 -0.4
v -0.3 1.2 -0.4
v -0.3 1.3 -0.4
v -0.3 1.7 -0.4
v -0.3 1.8 -0.4
v -0.2 1.1 -0.4
v -0.2 1.2 -0.4
v -0.2 1.3 -0.4
v -0.2 1.7 -0.4
v -0.2 1.8 -0.4
v -0.2 1.9 -0.4
v 0.2 1.1 -0.4
v 0.2 1.2 -0.4
v 0.2 1.3 -0.4
v 0.2 1.7 -0.4
v 0.2 1.8 -0.4
v 0.2 1.9 -0.4
v 0.3 1.2 -0.4
v 0.3 1.3 -0.4
v 0.3 1.7 -0.4
v 0.3 1.8 -0.4
v 0.4 1.3 -0.4
v 0.4 1.7 -0.4
v -0.2 1.3 -0.5
v -0.2 1.7 -0.5
v 0.2 1.3 -0.5
v 0.2 1.7 -0.5
v -0.1 1 0.4
v 0.1 1 0.4
v -0.3 1 0.3
v -0.1 1 0.3
v 0.1 1 0.3
v 0.3 1 0.3
v -0.3 1 -0.2
v -0.1 1 -0.2
v 0.1 1 -0.2
v 0.3 1 -0.2
v -0.1 1 -0.3
v 0.1 1 -0.3
v -0.2 1.1 0.5
v 0.2 1.1 0.5
v -0.3 1.1 0.4
v -0.2 1.1 0.4
v -0.1 1.1 0.4
v 0.1 1.1 0.4
v 0.2 1.1 0.4
v 0.3 1.1 0.4
v -0.4 1.1 0.3
v -0.3 1.1 0.3
v -0.1 1.1 0.3
v 0.1 1.1 0.3
v 0.3 1.1 0.3
v 0.4 1.1 0.3
v -0.4 1.1 -0.2
v -0.3 1.1 -0.2
v -0.1 1.1 -0.2
v 0.1 1.1 -0.2
v 0.3 1.1 -0.2
v 0.4 1.1 -0.2
v -0.3 1.1 -0.3
v -0.2 1.1 -0.3
v -0.1 1.1 -0.3
v 0.1 1.1 -0.3
v 0.2 1.1 -0.3
v 0.3 1.1 -0.3
v -0.2 1.1 -0.4
v 0.2 1.1 -0.4
v -0.3 1.2 0.5
v -0.2 1.2 0.5
v 0.2 1.2 0.5
v 0.3 1.2 0.5
v -0.4 1.2 0.4
v -0.3 1.2 0.4
v -0.2 1.2 0.4
v 0.2 1.2 0.4
v 0.3 1.2 0.4
v 0.4 1.2 0.4
v -0.5 1.2 0.3
v -0.4 1.2 0.3
v -0.3 1.2 0.3
v 0.3 1.2 0.3
v 0.4 1.2 0.3
v 0.5 1.2 0.3
v -0.5 1.2 -0.2
v -0.4 1.2 -0.2
v -0.3 1.2 -0.2
v 0.3 1.2 -0.2
v 0.4 1.2 -0.2
v 0.5 1.2 -0.2
v -0.4 1.2 -0.3
v -0.3 1.2 -0.3
v -0.2 1.2 -0.3
v 0.2 1.2 -0.3
v 0.3 1.2 -0.3
v 0.4 1.2 -0.3
v -0.3 1.2 -0.4
v -0.2 1.2 -0.4
v 0.2 1.2 -0.4
v 0.3 1.2 -0.4
v -0.2 1.3 0.6
v 0.2 1.3 0.6
v -0.4 1.3 0.5
v -0.3 1.3 0.5
v -0.2 1.3 0.5
v 0.2 1.3 0.5
v 0.3 1.3 0.5
v 0.4 1.3 0.5
v -0.4 1.3 0.4
v -0.3 1.3 0.4
v 0.3 1.3 0.4
v 0.4 1.3 0.4
v -0.4 1.3 -0.3
v -0.3 1.3 -0.3
v 0.3 1.3 -0.3
v 0.4 1.3 -0.3
v -0.4 1.3 -0.4
v -0.3 1.3 -0.4
v -0.2 1.3 -0.4
v 0.2 1.3 -0.4
v 0.3 1.3 -0.4
v 0.4 1.3 -0.4
v -0.2 1.3 -0.5
v 0.2 1.3 -0.5
v -0.5 1.4 0.4
v -0.4 1.4 0.4
v 0.4 1.4 0.4
v 0.5 1.4 0.4
v -0.5 1.4 0.3
v -0.4 1.4 0.3
v 0.4 1.4 0.3
v 0.5 1.4 0.3
v -0.5 1.4 -0.2
v -0.4 1.4 -0.2
v 0.4 1.4 -0.2
v 0.5 1.4 -0.2
v -0.5 1.4 -0.3
v -0.4 1.4 -0.3
v 0.4 1.4 -0.3
v 0.5 1.4 -0.3
v 0.1 2.1 0.0999999
v 0.2 2.1 0.0999999
v 0.1 2.1 -5.96046e-08
v 0.2 2.1 -5.96046e-08
v -0.5 1.6 0.4
v -0.4 1.6 0.4
v 0.4 1.6 0.4
v 0.5 1.6 0.4
v -0.5 1.6 0.3
v -0.4 1.6 0.3
v 0.4 1.6 0.3
v 0.5 1.6 0.3
v -0.5 1.6 -0.2
v -0.4 1.6 -0.2
v 0.4 1.6 -0.2
v 0.5 1.6 -0.2
v -0.5 1.6 -0.3
v -0.4 1.6 -0.3
v 0.4 1.6 -0.3
v 0.5 1.6 -0.3
v -0.2 1.7 0.6
v 0.2 1.7 0.6
v -0.4 1.7 0.5
v -0.3 1.7 0.5
v -0.2 1.7 0.5
v 0.2 1.7 0.5
v 0.3 1.7 0.5
v 0.4 1.7 0.5
v -0.4 1.7 0.4
v -0.3 1.7 0.4
v 0.3 1.7 0.4
v 0.4 1.7 0.4
v -0.4 1.7 -0.3
v -0.3 1.7 -0.3
v 0.3 1.7 -0.3
v 0.4 1.7 -0.3
v -0.4 1.7 -0.4
v -0.3 1.7 -0.4
v -0.2 1.7 -0.4
v 0.2 1.7 -0.4
v 0.3 1.7 -0.4
v 0.4 1.7 -0.4
v -0.2 1.7 -0.5
v 0.2 1.7 -0.5
v -0.3 1.8 0.5
v -0.2 1.8 0.5
v 0.2 1.8 0.5
v 0.3 1.8 0.5
v -0.4 1.8 0.4
v -0.3 1.8 0.4
v -0.2 1.8 0.4
v 0.2 1.8 0.4
v 0.3 1.8 0.4
v 0.4 1.8 0.4
v -0.5 1.8 0.3
v -0.4 1.8 0.3
v -0.3 1.8 0.3
v 0.3 1.8 0.3
v 0.4 1.8 0.3
v 0.5 1.8 0.3
v -0.5 1.8 -0.2
v -0.4 1.8 -0.2
v -0.3 1.8 -0.2
v 0.3 1.8 -0.2
v 0.4 1.8 -0.2
v 0.5 1.8 -0.2
v -0.4 1.8 -0.3
v -0.3 1.8 -0.3
v -0.2 1.8 -0.3
v 0.2 1.8 -0.3
v 0.3 1.8 -0.3
v 0.4 1.8 -0.3
v -0.3 1.8 -0.4
v -0.2 1.8 -0.4
v 0.2 1.8 -0.4
v 0.3 1.8 -0.4
v -0.2 1.9 0.5
v 0.2 1.9 0.5
v -0.3 1.9 0.4
v -0.2 1.9 0.4
v -0.1 1.9 0.4
v 0.1 1.9 0.4
v 0.2 1.9 0.4
v 0.3 1.9 0.4
v -0.4 1.9 0.3
v -0.3 1.9 0.3
v -0.1 1.9 0.3
v 0.1 1.9 0.3
v 0.3 1.9 0.3
v 0.4 1.9 0.3
v -0.4 1.9 -0.2
v -0.3 1.9 -0.2
v -0.1 1.9 -0.2
v 0.1 1.9 -0.2
v 0.3 1.9 -0.2
v 0.4 1.9 -0.2
v -0.3 1.9 -0.3
v -0.2 1.9 -0.3
v -0.1 1.9 -0.3
v 0.1 1.9 -0.3
v 0.2 1.9 -0.3
v 0.3 1.9 -0.3
v -0.2 1.9 -0.4
v 0.2 1.9 -0.4
v -0.1 2 0.4
v 0.1 2 0.4
v -0.3 2 0.3
v -0.1 2 0.3
v 0.1 2 0.3
v 0.3 2 0.3
v -0.1 2 0.0999999
v 0 2 0.0999999
v 0.1 2 0.0999999
v -0.1 2 -5.96046e-08
v 0 2 -5.96046e-08
v 0.1 2 -5.96046e-08
v -0.3 2 -0.2
v -0.1 2 -0.2
v 0.1 2 -0.2
v 0.3 2 -0.2
v -0.1 2 -0.3
v 0.1 2 -0.3
v 0 2.2 0.0999999
v 0.1 2.2 0.0999999
v 0.2 2.2 0.0999999
v 0 2.2 -5.96046e-08
v 0.1 2.2 -5.96046e-08
v 0.2 2.2 -5.96046e-08

# faces
f 4/5/1 2/5/1 1/5/1
f 5/5/1 2/5/1 4/5/1
f 7/5/1 4/5/1 3/5/1
f 7/5/1 6/5/1 5/5/1
f 7/5/1 5/5/1 4/5/1
f 8/5/1 6/5/1 7/5/1
f 9/5/1 6/5/1 8/5/1
f 10/5/1 6/5/1 9/5/1
f 11/5/1 9/5/1 8/5/1
f 12/5/1 9/5/1 11/5/1
f 16/5/1 14/5/1 13/5/1
f 17/5/1 14/5/1 16/5/1
f 20/5/1 16/5/1 15/5/1
f 21/5/1 18/5/1 17/5/1
f 23/5/1 20/5/1 19/5/1
f 23/5/1 16/5/1 20/5/1
f 24/5/1 16/5/1 23/5/1
f 25/5/1 22/5/1 21/5/1
f 25/5/1 21/5/1 17/5/1
f 26/5/1 22/5/1 25/5/1
f 27/5/1 23/5/1 19/5/1
f 30/5/1 22/5/1 26/5/1
f 31/5/1 28/5/1 27/5/1
f 31/5/1 27/5/1 19/5/1
f 32/5/1 28/5/1 31/5/1
f 33/5/1 30/5/1 29/5/1
f 33/5/1 22/5/1 30/5/1
f 34/5/1 22/5/1 33/5/1
f 35/5/1 28/5/1 32/5/1
f 36/5/1 28/5/1 35/5/1
f 37/5/1 33/5/1 29/5/1
f 38/5/1 33/5/1 37/5/1
f 39/5/1 37/5/1 36/5/1
f 40/5/1 37/5/1 39/5/1
f 44/5/1 42/5/1 41/5/1
f 45/5/1 42/5/1 44/5/1
f 48/5/1 44/5/1 43/5/1
f 49/5/1 44/5/1 48/5/1
f 50/5/1 46/5/1 45/5/1
f 51/5/1 46/5/1 50/5/1
f 53/5/1 48/5/1 47/5/1
f 54/5/1 48/5/1 53/5/1
f 55/5/1 52/5/1 51/5/1
f 56/5/1 52/5/1 55/5/1
f 61/5/1 58/5/1 57/5/1
f 62/5/1 58/5/1 61/5/1
f 65/5/1 60/5/1 59/5/1
f 66/5/1 60/5/1 65/5/1
f 67/5/1 63/5/1 62/5/1
f 68/5/1 63/5/1 67/5/1
f 69/5/1 65/5/1 64/5/1
f 70/5/1 65/5/1 69/5/1
f 71/5/1 69/5/1 68/5/1
f 72/5/1 69/5/1 71/5/1
f 77/5/1 74/5/1 73/5/1
f 78/5/1 74/5/1 77/5/1
f 79/5/1 76/5/1 75/5/1
f 80/5/1 76/5/1 79/5/1
f 85/5/1 82/5/1 81/5/1
f 86/5/1 82/5/1 85/5/1
f 87/5/1 84/5/1 83/5/1
f 88/5/1 84/5/1 87/5/1
f 93/5/1 90/5/1 89/5/1
f 94/5/1 90/5/1 93/5/1
f 95/5/1 92/5/1 91/5/1
f 96/5/1 92/5/1 95/5/1
f 101/5/1 98/5/1 97/5/1
f 102/5/1 98/5/1 101/5/1
f 103/5/1 100/5/1 99/5/1
f 104/5/1 100/5/1 103/5/1
f 109/5/1 106/5/1 105/5/1
f 110/5/1 106/5/1 109/5/1
f 111/5/1 108/5/1 107/5/1
f 112/5/1 108/5/1 111/5/1
f 115/1/1 114/1/1 113/1/1
f 116/1/1 114/1/1 115/1/1
f 117/3/1 116/3/1 115/3/1
f 118/3/1 116/3/1 117/3/1
f 119/5/2 120/5/2 123/5/2
f 123/5/2 120/5/2 124/5/2
f 121/5/2 122/5/2 125/5/2
f 125/5/2 122/5/2 126/5/2
f 127/5/2 128/5/2 131/5/2
f 131/5/2 128/5/2 132/5/2
f 129/5/2 130/5/2 135/5/2
f 135/5/2 130/5/2 136/5/2
f 133/1/2 134/1/2 137/1/2
f 137/1/2 134/1/2 138/1/2
f 139/5/2 140/5/2 143/5/2
f 143/5/2 140/5/2 144/5/2
f 141/5/2 142/5/2 145/5/2
f 145/5/2 142/5/2 146/5/2
f 147/5/2 148/5/2 151/5/2
f 151/5/2 148/5/2 152/5/2
f 149/5/2 150/5/2 153/5/2
f 153/5/2 150/5/2 154/5/2
f 155/5/2 156/5/2 159/5/2
f 159/5/2 156/5/2 160/5/2
f 157/5/2 158/5/2 161/5/2
f 161/5/2 158/5/2 162/5/2
f 163/2/2 164/2/2 165/2/2
f 165/2/2 164/2/2 166/2/2
f 167/5/2 168/5/2 170/5/2
f 170/5/2 168/5/2 171/5/2
f 169/5/2 170/5/2 174/5/2
f 174/5/2 170/5/2 175/5/2
f 171/5/2 172/5/2 176/5/2
f 176/5/2 172/5/2 177/5/2
f 173/5/2 174/5/2 179/5/2
f 179/5/2 174/5/2 180/5/2
f 177/5/2 178/5/2 181/5/2
f 181/5/2 178/5/2 182/5/2
f 183/5/2 184/5/2 187/5/2
f 187/5/2 184/5/2 188/5/2
f 185/5/2 186/5/2 191/5/2
f 191/5/2 186/5/2 192/5/2
f 188/5/2 189/5/2 193/5/2
f 193/5/2 189/5/2 194/5/2
f 190/5/2 191/5/2 195/5/2
f 195/5/2 191/5/2 196/5/2
f 194/5/2 195/5/2 197/5/2
f 197/5/2 195/5/2 198/5/2
f 199/5/2 200/5/2 202/5/2
f 202/5/2 200/5/2 203/5/2
f 201/5/2 202/5/2 206/5/2
f 203/5/2 204/5/2 207/5/2
f 205/5/2 206/5/2 209/5/2
f 206/5/2 202/5/2 209/5/2
f 209/5/2 202/5/2 210/5/2
f 207/5/2 208/5/2 211/5/2
f 203/5/2 207/5/2 211/5/2
f 211/5/2 208/5/2 212/5/2
f 205/5/2 209/5/2 213/5/2
f 212/5/2 208/5/2 216/5/2
f 213/5/2 214/5/2 217/5/2
f 205/5/2 213/5/2 217/5/2
f 217/5/2 214/5/2 218/5/2
f 215/5/2 216/5/2 219/5/2
f 216/5/2 208/5/2 219/5/2
f 219/5/2 208/5/2 220/5/2
f 218/5/2 214/5/2 221/5/2
f 221/5/2 214/5/2 222/5/2
f 215/5/2 219/5/2 223/5/2
f 223/5/2 219/5/2 224/5/2
f 222/5/2 223/5/2 225/5/2
f 225/5/2 223/5/2 226/5/2
f 227/5/2 228/5/2 230/5/2
f 230/5/2 228/5/2 231/5/2
f 229/5/2 230/5/2 233/5/2
f 231/5/2 232/5/2 233/5/2
f 230/5/2 231/5/2 233/5/2
f 233/5/2 232/5/2 234/5/2
f 234/5/2 232/5/2 235/5/2
f 235/5/2 232/5/2 236/5/2
f 234/5/2 235/5/2 237/5/2
f 237/5/2 235/5/2 238/5/2
f 241/5/3 240/5/3 239/5/3
f 242/5/3 240/5/3 241/5/3
f 246/5/3 244/5/3 243/5/3
f 247/5/3 244/5/3 246/5/3
f 250/5/3 246/5/3 245/5/3
f 250/5/3 248/5/3 247/5/3
f 250/5/3 247/5/3 246/5/3
f 251/5/3 248/5/3 250/5/3
f 252/5/3 248/5/3 251/5/3
f 253/5/3 248/5/3 252/5/3
f 255/5/3 250/5/3 249/5/3
f 255/5/3 251/5/3 250/5/3
f 256/5/3 251/5/3 255/5/3
f 257/5/3 251/5/3 256/5/3
f 258/5/3 254/5/3 253/5/3
f 258/5/3 253/5/3 252/5/3
f 259/5/3 254/5/3 258/5/3
f 260/5/3 254/5/3 259/5/3
f 261/5/3 257/5/3 256/5/3
f 261/5/3 259/5/3 258/5/3
f 261/5/3 258/5/3 257/5/3
f 262/5/3 259/5/3 261/5/3
f 263/5/3 259/5/3 262/5/3
f 264/5/3 259/5/3 263/5/3
f 265/5/3 263/5/3 262/5/3
f 266/5/3 263/5/3 265/5/3
f 271/5/3 268/5/3 267/5/3
f 272/5/3 268/5/3 271/5/3
f 276/5/3 270/5/3 269/5/3
f 277/5/3 270/5/3 276/5/3
f 278/5/3 274/5/3 273/5/3
f 279/5/3 274/5/3 278/5/3
f 281/5/3 276/5/3 275/5/3
f 282/5/3 276/5/3 281/5/3
f 283/5/3 280/5/3 279/5/3
f 284/5/3 280/5/3 283/5/3
f 289/5/3 286/5/3 285/5/3
f 290/5/3 286/5/3 289/5/3
f 291/5/3 288/5/3 287/5/3
f 292/5/3 288/5/3 291/5/3
f 297/5/3 294/5/3 293/5/3
f 298/5/3 294/5/3 297/5/3
f 301/5/3 296/5/3 295/5/3
f 302/5/3 296/5/3 301/5/3
f 303/5/3 299/5/3 298/5/3
f 304/5/3 299/5/3 303/5/3
f 307/5/3 301/5/3 300/5/3
f 308/5/3 301/5/3 307/5/3
f 309/5/3 306/5/3 305/5/3
f 310/5/3 306/5/3 309/5/3
f 316/5/3 312/5/3 311/5/3
f 317/5/3 312/5/3 316/5/3
f 318/5/3 314/5/3 313/5/3
f 319/5/3 314/5/3 318/5/3
f 322/5/3 316/5/3 315/5/3
f 323/5/3 316/5/3 322/5/3
f 324/5/3 320/5/3 319/5/3
f 325/5/3 320/5/3 324/5/3
f 327/5/3 322/5/3 321/5/3
f 328/5/3 322/5/3 327/5/3
f 329/5/3 326/5/3 325/5/3
f 330/5/3 326/5/3 329/5/3
f 335/5/3 332/5/3 331/5/3
f 336/5/3 332/5/3 335/5/3
f 339/5/3 334/5/3 333/5/3
f 340/5/3 334/5/3 339/5/3
f 341/5/3 337/5/3 336/5/3
f 342/5/3 337/5/3 341/5/3
f 345/5/3 339/5/3 338/5/3
f 346/5/3 339/5/3 345/5/3
f 347/5/3 343/5/3 342/5/3
f 348/5/3 343/5/3 347/5/3
f 349/5/3 345/5/3 344/5/3
f 350/5/3 345/5/3 349/5/3
f 354/1/3 352/1/3 351/1/3
f 355/3/3 353/3/3 352/3/3
f 355/1/3 352/1/3 354/1/3
f 356/3/3 353/3/3 355/3/3
f 357/2/3 356/2/3 355/2/3
f 358/2/3 356/2/3 357/2/3
f 359/1/4 360/1/4 362/1/4
f 360/3/4 361/3/4 363/3/4
f 362/1/4 360/1/4 363/1/4
f 363/3/4 361/3/4 364/3/4
f 363/2/4 364/2/4 365/2/4
f 365/2/4 364/2/4 366/2/4
f 367/5/4 368/5/4 372/5/4
f 372/5/4 368/5/4 373/5/4
f 369/5/4 370/5/4 374/5/4
f 374/5/4 370/5/4 375/5/4
f 371/5/4 372/5/4 378/5/4
f 378/5/4 372/5/4 379/5/4
f 375/5/4 376/5/4 380/5/4
f 380/5/4 376/5/4 381/5/4
f 377/5/4 378/5/4 383/5/4
f 383/5/4 378/5/4 384/5/4
f 381/5/4 382/5/4 385/5/4
f 385/5/4 382/5/4 386/5/4
f 387/5/4 388/5/4 391/5/4
f 391/5/4 388/5/4 392/5/4
f 389/5/4 390/5/4 395/5/4
f 395/5/4 390/5/4 396/5/4
f 392/5/4 393/5/4 397/5/4
f 397/5/4 393/5/4 398/5/4
f 394/5/4 395/5/4 401/5/4
f 401/5/4 395/5/4 402/5/4
f 398/5/4 399/5/4 403/5/4
f 403/5/4 399/5/4 404/5/4
f 400/5/4 401/5/4 405/5/4
f 405/5/4 401/5/4 406/5/4
f 407/5/4 408/5/4 411/5/4
f 411/5/4 408/5/4 412/5/4
f 409/5/4 410/5/4 416/5/4
f 416/5/4 410/5/4 417/5/4
f 413/5/4 414/5/4 418/5/4
f 418/5/4 414/5/4 419/5/4
f 415/5/4 416/5/4 421/5/4
f 421/5/4 416/5/4 422/5/4
f 419/5/4 420/5/4 423/5/4
f 423/5/4 420/5/4 424/5/4
f 425/5/4 426/5/4 429/5/4
f 429/5/4 426/5/4 430/5/4
f 427/5/4 428/5/4 431/5/4
f 431/5/4 428/5/4 432/5/4
f 433/5/4 434/5/4 437/5/4
f 437/5/4 434/5/4 438/5/4
f 435/5/4 436/5/4 441/5/4
f 441/5/4 436/5/4 442/5/4
f 438/5/4 439/5/4 443/5/4
f 443/5/4 439/5/4 444/5/4
f 440/5/4 441/5/4 447/5/4
f 447/5/4 441/5/4 448/5/4
f 445/5/4 446/5/4 449/5/4
f 449/5/4 446/5/4 450/5/4
f 451/5/4 452/5/4 454/5/4
f 454/5/4 452/5/4 455/5/4
f 453/5/4 454/5/4 458/5/4
f 455/5/4 456/5/4 458/5/4
f 454/5/4 455/5/4 458/5/4
f 458/5/4 456/5/4 459/5/4
f 459/5/4 456/5/4 460/5/4
f 460/5/4 456/5/4 461/5/4
f 457/5/4 458/5/4 463/5/4
f 458/5/4 459/5/4 463/5/4
f 463/5/4 459/5/4 464/5/4
f 464/5/4 459/5/4 465/5/4
f 461/5/4 462/5/4 466/5/4
f 460/5/4 461/5/4 466/5/4
f 466/5/4 462/5/4 467/5/4
f 467/5/4 462/5/4 468/5/4
f 464/5/4 465/5/4 469/5/4
f 466/5/4 467/5/4 469/5/4
f 465/5/4 466/5/4 469/5/4
f 469/5/4 467/5/4 470/5/4
f 470/5/4 467/5/4 471/5/4
f 471/5/4 467/5/4 472/5/4
f 470/5/4 471/5/4 473/5/4
f 473/5/4 471/5/4 474/5/4
f 475/5/4 476/5/4 477/5/4
f 477/5/4 476/5/4 478/5/4
f 482/5/5 480/5/5 479/5/5
f 483/5/5 480/5/5 482/5/5
f 485/5/5 482/5/5 481/5/5
f 485/5/5 484/5/5 483/5/5
f 485/5/5 483/5/5 482/5/5
f 486/5/5 484/5/5 485/5/5
f 487/5/5 484/5/5 486/5/5
f 488/5/5 484/5/5 487/5/5
f 489/5/5 487/5/5 486/5/5
f 490/5/5 487/5/5 489/5/5
f 494/5/5 492/5/5 491/5/5
f 495/5/5 492/5/5 494/5/5
f 496/5/5 492/5/5 495/5/5
f 497/5/5 492/5/5 496/5/5
f 500/5/5 494/5/5 493/5/5
f 500/5/5 495/5/5 494/5/5
f 501/5/5 495/5/5 500/5/5
f 502/5/5 497/5/5 496/5/5
f 502/5/5 498/5/5 497/5/5
f 503/5/5 498/5/5 502/5/5
f 505/5/5 500/5/5 499/5/5
f 506/5/5 500/5/5 505/5/5
f 509/5/5 504/5/5 503/5/5
f 510/5/5 504/5/5 509/5/5
f 511/5/5 507/5/5 506/5/5
f 512/5/5 507/5/5 511/5/5
f 513/5/5 507/5/5 512/5/5
f 514/5/5 509/5/5 508/5/5
f 515/5/5 509/5/5 514/5/5
f 516/5/5 509/5/5 515/5/5
f 517/5/5 513/5/5 512/5/5
f 517/5/5 515/5/5 514/5/5
f 517/5/5 514/5/5 513/5/5
f 518/5/5 515/5/5 517/5/5
f 524/5/5 520/5/5 519/5/5
f 525/5/5 520/5/5 524/5/5
f 526/5/5 522/5/5 521/5/5
f 527/5/5 522/5/5 526/5/5
f 530/5/5 524/5/5 523/5/5
f 531/5/5 524/5/5 530/5/5
f 532/5/5 528/5/5 527/5/5
f 533/5/5 528/5/5 532/5/5
f 535/5/5 530/5/5 529/5/5
f 536/5/5 530/5/5 535/5/5
f 539/5/5 534/5/5 533/5/5
f 540/5/5 534/5/5 539/5/5
f 541/5/5 537/5/5 536/5/5
f 542/5/5 537/5/5 541/5/5
f 545/5/5 539/5/5 538/5/5
f 546/5/5 539/5/5 545/5/5
f 547/5/5 543/5/5 542/5/5
f 548/5/5 543/5/5 547/5/5
f 549/5/5 545/5/5 544/5/5
f 550/5/5 545/5/5 549/5/5
f 555/5/5 552/5/5 551/5/5
f 556/5/5 552/5/5 555/5/5
f 559/5/5 554/5/5 553/5/5
f 560/5/5 554/5/5 559/5/5
f 561/5/5 558/5/5 557/5/5
f 562/5/5 558/5/5 561/5/5
f 567/5/5 564/5/5 563/5/5
f 568/5/5 564/5/5 567/5/5
f 571/5/5 566/5/5 565/5/5
f 572/5/5 566/5/5 571/5/5
f 573/5/5 570/5/5 569/5/5
f 574/5/5 570/5/5 573/5/5
f 579/5/5 576/5/5 575/5/5
f 580/5/5 576/5/5 579/5/5
f 581/5/5 578/5/5 577/5/5
f 582/5/5 578/5/5 581/5/5
f 587/5/5 584/5/5 583/5/5
f 588/5/5 584/5/5 587/5/5
f 589/5/5 586/5/5 585/5/5
f 590/5/5 586/5/5 589/5/5
f 593/2/5 592/2/5 591/2/5
f 594/2/5 592/2/5 593/2/5
f 595/5/6 596/5/6 599/5/6
f 599/5/6 596/5/6 600/5/6
f 597/5/6 598/5/6 601/5/6
f 601/5/6 598/5/6 602/5/6
f 603/5/6 604/5/6 607/5/6
f 607/5/6 604/5/6 608/5/6
f 605/5/6 606/5/6 609/5/6
f 609/5/6 606/5/6 610/5/6
f 611/5/6 612/5/6 615/5/6
f 615/5/6 612/5/6 616/5/6
f 613/5/6 614/5/6 619/5/6
f 619/5/6 614/5/6 620/5/6
f 617/5/6 618/5/6 621/5/6
f 621/5/6 618/5/6 622/5/6
f 623/5/6 624/5/6 627/5/6
f 627/5/6 624/5/6 628/5/6
f 625/5/6 626/5/6 631/5/6
f 631/5/6 626/5/6 632/5/6
f 629/5/6 630/5/6 633/5/6
f 633/5/6 630/5/6 634/5/6
f 635/5/6 636/5/6 640/5/6
f 640/5/6 636/5/6 641/5/6
f 637/5/6 638/5/6 642/5/6
f 642/5/6 638/5/6 643/5/6
f 639/5/6 640/5/6 646/5/6
f 646/5/6 640/5/6 647/5/6
f 643/5/6 644/5/6 648/5/6
f 648/5/6 644/5/6 649/5/6
f 645/5/6 646/5/6 651/5/6
f 651/5/6 646/5/6 652/5/6
f 649/5/6 650/5/6 655/5/6
f 655/5/6 650/5/6 656/5/6
f 652/5/6 653/5/6 657/5/6
f 657/5/6 653/5/6 658/5/6
f 654/5/6 655/5/6 661/5/6
f 661/5/6 655/5/6 662/5/6
f 658/5/6 659/5/6 663/5/6
f 663/5/6 659/5/6 664/5/6
f 660/5/6 661/5/6 665/5/6
f 665/5/6 661/5/6 666/5/6
f 667/5/6 668/5/6 670/5/6
f 670/5/6 668/5/6 671/5/6
f 671/5/6 668/5/6 672/5/6
f 672/5/6 668/5/6 673/5/6
f 669/5/6 670/5/6 676/5/6
f 670/5/6 671/5/6 676/5/6
f 676/5/6 671/5/6 677/5/6
f 672/5/6 673/5/6 678/5/6
f 673/5/6 674/5/6 678/5/6
f 678/5/6 674/5/6 679/5/6
f 675/5/6 676/5/6 681/5/6
f 681/5/6 676/5/6 682/5/6
f 679/5/6 680/5/6 685/5/6
f 685/5/6 680/5/6 686/5/6
f 682/5/6 683/5/6 687/5/6
f 687/5/6 683/5/6 688/5/6
f 688/5/6 683/5/6 689/5/6
f 684/5/6 685/5/6 690/5/6
f 690/5/6 685/5/6 691/5/6
f 691/5/6 685/5/6 692/5/6
f 688/5/6 689/5/6 693/5/6
f 690/5/6 691/5/6 693/5/6
f 689/5/6 690/5/6 693/5/6
f 693/5/6 691/5/6 694/5/6
f 695/5/6 696/5/6 698/5/6
f 698/5/6 696/5/6 699/5/6
f 697/5/6 698/5/6 701/5/6
f 699/5/6 700/5/6 701/5/6
f 698/5/6 699/5/6 701/5/6
f 701/5/6 700/5/6 702/5/6
f 702/5/6 700/5/6 703/5/6
f 697/5/6 701/5/6 704/5/6
f 701/1/6 702/1/6 704/1/6
f 704/1/6 702/1/6 705/1/6
f 703/5/6 700/5/6 706/5/6
f 704/5/6 705/5/6 707/5/6
f 705/5/6 706/5/6 707/5/6
f 697/5/6 704/5/6 707/5/6
f 707/5/6 706/5/6 708/5/6
f 706/5/6 700/5/6 709/5/6
f 708/5/6 706/5/6 709/5/6
f 709/5/6 700/5/6 710/5/6
f 708/5/6 709/5/6 711/5/6
f 711/5/6 709/5/6 712/5/6
f 713/3/6 714/3/6 716/3/6
f 714/2/6 715/2/6 717/2/6
f 716/3/6 714/3/6 717/3/6
f 717/2/6 715/2/6 718/2/6
