# MagicaVoxel @ Ephtracy

# group
o 

# material
mtllib DudBomb.mtl
usemtl palette

# normals
vn -1 0 0
vn 1 0 0
vn 0 0 1
vn 0 0 -1
vn 0 -1 0
vn 0 1 0

# texcoords
vt 0.0292969 0.5
vt 0.0917969 0.5
vt 0.134766 0.5
vt 0.138672 0.5
vt 0.994141 0.5

# verts
v -0.5 1.2 0.3
v -0.5 1.2 0.2
v -0.5 1.2 -0.2
v -0.5 1.3 -5.96046e-08
v -0.5 1.3 -0.1
v -0.5 1.3 -0.2
v -0.5 1.4 0.4
v -0.5 1.4 0.3
v -0.5 1.4 0.2
v -0.5 1.4 -5.96046e-08
v -0.5 1.4 -0.1
v -0.5 1.4 -0.2
v -0.5 1.4 -0.3
v -0.5 1.5 -0.1
v -0.5 1.5 -0.2
v -0.5 1.6 0.4
v -0.5 1.6 0.3
v -0.5 1.6 -0.2
v -0.5 1.6 -0.3
v -0.5 1.7 -0.1
v -0.5 1.7 -0.2
v -0.5 1.8 0.3
v -0.5 1.8 -0.1
v -0.5 1.8 -0.2
v -0.4 1.1 0.3
v -0.4 1.1 -0.2
v -0.4 1.2 0.4
v -0.4 1.2 0.3
v -0.4 1.2 0.2
v -0.4 1.2 -0.2
v -0.4 1.2 -0.3
v -0.4 1.3 0.5
v -0.4 1.3 0.4
v -0.4 1.3 0.3
v -0.4 1.3 -0.2
v -0.4 1.3 -0.3
v -0.4 1.3 -0.4
v -0.4 1.4 0.4
v -0.4 1.4 0.3
v -0.4 1.4 -0.2
v -0.4 1.4 -0.3
v -0.4 1.6 0.4
v -0.4 1.6 0.3
v -0.4 1.6 -0.2
v -0.4 1.6 -0.3
v -0.4 1.7 0.5
v -0.4 1.7 0.4
v -0.4 1.7 0.3
v -0.4 1.7 -0.2
v -0.4 1.7 -0.3
v -0.4 1.7 -0.4
v -0.4 1.8 0.4
v -0.4 1.8 0.3
v -0.4 1.8 0.2
v -0.4 1.8 -5.96046e-08
v -0.4 1.8 -0.1
v -0.4 1.8 -0.2
v -0.4 1.8 -0.3
v -0.4 1.9 0.3
v -0.4 1.9 0.2
v -0.4 1.9 -5.96046e-08
v -0.4 1.9 -0.1
v -0.4 1.9 -0.2
v -0.3 1 0.3
v -0.3 1 -0.1
v -0.3 1 -0.2
v -0.3 1.1 0.4
v -0.3 1.1 0.3
v -0.3 1.1 -0.1
v -0.3 1.1 -0.2
v -0.3 1.1 -0.3
v -0.3 1.2 0.5
v -0.3 1.2 0.4
v -0.3 1.2 0.3
v -0.3 1.2 -0.2
v -0.3 1.2 -0.3
v -0.3 1.2 -0.4
v -0.3 1.3 0.5
v -0.3 1.3 0.4
v -0.3 1.3 -0.3
v -0.3 1.3 -0.4
v -0.3 1.7 0.5
v -0.3 1.7 0.4
v -0.3 1.7 -0.3
v -0.3 1.7 -0.4
v -0.3 1.8 0.5
v -0.3 1.8 0.4
v -0.3 1.8 0.3
v -0.3 1.8 -0.2
v -0.3 1.8 -0.3
v -0.3 1.8 -0.4
v -0.3 1.9 0.4
v -0.3 1.9 0.3
v -0.3 1.9 0.2
v -0.3 1.9 -5.96046e-08
v -0.3 1.9 -0.1
v -0.3 1.9 -0.2
v -0.3 1.9 -0.3
v -0.3 2 0.3
v -0.3 2 -0.2
v -0.2 1.1 0.5
v -0.2 1.1 0.4
v -0.2 1.1 -0.3
v -0.2 1.1 -0.4
v -0.2 1.2 0.5
v -0.2 1.2 0.4
v -0.2 1.2 -0.3
v -0.2 1.2 -0.4
v -0.2 1.3 0.6
v -0.2 1.3 0.5
v -0.2 1.3 -0.4
v -0.2 1.3 -0.5
v -0.2 1.4 0.6
v -0.2 1.4 0.5
v -0.2 1.4 -0.4
v -0.2 1.4 -0.5
v -0.2 1.5 0.6
v -0.2 1.5 0.5
v -0.2 1.5 -0.4
v -0.2 1.5 -0.5
v -0.2 1.6 0.6
v -0.2 1.6 0.5
v -0.2 1.6 -0.4
v -0.2 1.6 -0.5
v -0.2 1.7 0.6
v -0.2 1.7 0.5
v -0.2 1.7 -0.4
v -0.2 1.7 -0.5
v -0.2 1.8 0.5
v -0.2 1.8 0.4
v -0.2 1.8 -0.3
v -0.2 1.8 -0.4
v -0.2 1.9 0.5
v -0.2 1.9 0.4
v -0.2 1.9 -0.3
v -0.2 1.9 -0.4
v -0.1 1 0.4
v -0.1 1 0.3
v -0.1 1 -0.2
v -0.1 1 -0.3
v -0.1 1.1 0.4
v -0.1 1.1 0.3
v -0.1 1.1 -0.2
v -0.1 1.1 -0.3
v -0.1 1.9 0.4
v -0.1 1.9 0.3
v -0.1 1.9 -0.2
v -0.1 1.9 -0.3
v -0.1 2 0.4
v -0.1 2 0.3
v -0.1 2 -0.2
v -0.1 2 -0.3
v 0 2 0.0999999
v 0 2 -5.96046e-08
v 0 2.2 0.0999999
v 0 2.2 -5.96046e-08
v 0.1 1 0.4
v 0.1 1 0.3
v 0.1 1 -0.2
v 0.1 1 -0.3
v 0.1 1.1 0.4
v 0.1 1.1 0.3
v 0.1 1.1 -0.2
v 0.1 1.1 -0.3
v 0.1 1.9 0.4
v 0.1 1.9 0.3
v 0.1 1.9 -0.2
v 0.1 1.9 -0.3
v 0.1 2 0.4
v 0.1 2 0.3
v 0.1 2 0.0999999
v 0.1 2 -5.96046e-08
v 0.1 2 -0.2
v 0.1 2 -0.3
v 0.1 2.1 0.0999999
v 0.1 2.1 -5.96046e-08
v 0.2 1.1 0.5
v 0.2 1.1 0.4
v 0.2 1.1 -0.3
v 0.2 1.1 -0.4
v 0.2 1.2 0.5
v 0.2 1.2 0.4
v 0.2 1.2 -0.3
v 0.2 1.2 -0.4
v 0.2 1.3 0.6
v 0.2 1.3 0.5
v 0.2 1.3 -0.4
v 0.2 1.3 -0.5
v 0.2 1.5 -0.4
v 0.2 1.5 -0.5
v 0.2 1.6 -0.4
v 0.2 1.6 -0.5
v 0.2 1.7 0.6
v 0.2 1.7 0.5
v 0.2 1.7 -0.4
v 0.2 1.7 -0.5
v 0.2 1.8 0.5
v 0.2 1.8 0.4
v 0.2 1.8 -0.3
v 0.2 1.8 -0.4
v 0.2 1.9 0.5
v 0.2 1.9 0.4
v 0.2 1.9 -0.3
v 0.2 1.9 -0.4
v 0.2 2.1 0.0999999
v 0.2 2.1 -5.96046e-08
v 0.2 2.2 0.0999999
v 0.2 2.2 -5.96046e-08
v 0.3 1 0.3
v 0.3 1 0.0999999
v 0.3 1 -5.96046e-08
v 0.3 1 -0.1
v 0.3 1 -0.2
v 0.3 1.1 0.4
v 0.3 1.1 0.3
v 0.3 1.1 0.0999999
v 0.3 1.1 -5.96046e-08
v 0.3 1.1 -0.1
v 0.3 1.1 -0.2
v 0.3 1.1 -0.3
v 0.3 1.2 0.5
v 0.3 1.2 0.4
v 0.3 1.2 0.3
v 0.3 1.2 -0.2
v 0.3 1.2 -0.3
v 0.3 1.2 -0.4
v 0.3 1.3 0.5
v 0.3 1.3 0.4
v 0.3 1.3 -0.3
v 0.3 1.3 -0.4
v 0.3 1.7 0.5
v 0.3 1.7 0.4
v 0.3 1.7 -0.3
v 0.3 1.7 -0.4
v 0.3 1.8 0.5
v 0.3 1.8 0.4
v 0.3 1.8 0.3
v 0.3 1.8 -0.2
v 0.3 1.8 -0.3
v 0.3 1.8 -0.4
v 0.3 1.9 0.4
v 0.3 1.9 0.3
v 0.3 1.9 0.2
v 0.3 1.9 -0.1
v 0.3 1.9 -0.2
v 0.3 1.9 -0.3
v 0.3 2 0.3
v 0.3 2 0.2
v 0.3 2 -0.1
v 0.3 2 -0.2
v 0.4 1.1 0.3
v 0.4 1.1 -5.96046e-08
v 0.4 1.1 -0.1
v 0.4 1.1 -0.2
v 0.4 1.2 0.4
v 0.4 1.2 0.3
v 0.4 1.2 -5.96046e-08
v 0.4 1.2 -0.1
v 0.4 1.2 -0.2
v 0.4 1.2 -0.3
v 0.4 1.3 0.5
v 0.4 1.3 0.4
v 0.4 1.3 -0.3
v 0.4 1.3 -0.4
v 0.4 1.4 0.4
v 0.4 1.4 0.3
v 0.4 1.4 -0.2
v 0.4 1.4 -0.3
v 0.4 1.5 -0.3
v 0.4 1.6 0.4
v 0.4 1.6 0.3
v 0.4 1.6 -0.2
v 0.4 1.6 -0.3
v 0.4 1.7 0.5
v 0.4 1.7 0.4
v 0.4 1.7 -0.3
v 0.4 1.7 -0.4
v 0.4 1.8 0.4
v 0.4 1.8 0.3
v 0.4 1.8 -0.1
v 0.4 1.8 -0.2
v 0.4 1.8 -0.3
v 0.4 1.9 0.3
v 0.4 1.9 -0.1
v 0.4 1.9 -0.2
v 0.5 1.2 0.3
v 0.5 1.2 -0.2
v 0.5 1.4 0.4
v 0.5 1.4 0.3
v 0.5 1.4 -0.2
v 0.5 1.4 -0.3
v 0.5 1.5 0.3
v 0.5 1.5 0.2
v 0.5 1.5 0.0999999
v 0.5 1.5 -0.2
v 0.5 1.5 -0.3
v 0.5 1.6 0.4
v 0.5 1.6 0.3
v 0.5 1.6 0.2
v 0.5 1.6 0.0999999
v 0.5 1.6 -0.2
v 0.5 1.6 -0.3
v 0.5 1.7 0.2
v 0.5 1.7 0.0999999
v 0.5 1.8 0.3
v 0.5 1.8 -0.2
v -0.2 1.3 0.6
v -0.2 1.4 0.6
v -0.2 1.5 0.6
v -0.2 1.6 0.6
v -0.2 1.7 0.6
v -0.1 1.4 0.6
v -0.1 1.5 0.6
v -0.1 1.6 0.6
v 0.1 1.5 0.6
v 0.1 1.6 0.6
v 0.2 1.3 0.6
v 0.2 1.7 0.6
v -0.4 1.3 0.5
v -0.4 1.7 0.5
v -0.3 1.2 0.5
v -0.3 1.3 0.5
v -0.3 1.7 0.5
v -0.3 1.8 0.5
v -0.2 1.1 0.5
v -0.2 1.2 0.5
v -0.2 1.3 0.5
v -0.2 1.4 0.5
v -0.2 1.5 0.5
v -0.2 1.6 0.5
v -0.2 1.7 0.5
v -0.2 1.8 0.5
v -0.2 1.9 0.5
v 0 1.1 0.5
v 0 1.2 0.5
v 0.1 1.1 0.5
v 0.1 1.2 0.5
v 0.2 1.1 0.5
v 0.2 1.2 0.5
v 0.2 1.3 0.5
v 0.2 1.7 0.5
v 0.2 1.8 0.5
v 0.2 1.9 0.5
v 0.3 1.2 0.5
v 0.3 1.3 0.5
v 0.3 1.7 0.5
v 0.3 1.8 0.5
v 0.4 1.3 0.5
v 0.4 1.7 0.5
v -0.5 1.4 0.4
v -0.5 1.6 0.4
v -0.4 1.2 0.4
v -0.4 1.3 0.4
v -0.4 1.4 0.4
v -0.4 1.6 0.4
v -0.4 1.7 0.4
v -0.4 1.8 0.4
v -0.3 1.1 0.4
v -0.3 1.2 0.4
v -0.3 1.3 0.4
v -0.3 1.7 0.4
v -0.3 1.8 0.4
v -0.3 1.9 0.4
v -0.2 1.1 0.4
v -0.2 1.2 0.4
v -0.2 1.8 0.4
v -0.2 1.9 0.4
v -0.1 1 0.4
v -0.1 1.1 0.4
v -0.1 1.9 0.4
v -0.1 2 0.4
v 0 1.1 0.4
v 0.1 1 0.4
v 0.1 1.1 0.4
v 0.1 1.9 0.4
v 0.1 2 0.4
v 0.2 1.1 0.4
v 0.2 1.2 0.4
v 0.2 1.8 0.4
v 0.2 1.9 0.4
v 0.3 1.1 0.4
v 0.3 1.2 0.4
v 0.3 1.3 0.4
v 0.3 1.7 0.4
v 0.3 1.8 0.4
v 0.3 1.9 0.4
v 0.4 1.2 0.4
v 0.4 1.3 0.4
v 0.4 1.4 0.4
v 0.4 1.6 0.4
v 0.4 1.7 0.4
v 0.4 1.8 0.4
v 0.5 1.4 0.4
v 0.5 1.6 0.4
v -0.5 1.2 0.3
v -0.5 1.4 0.3
v -0.5 1.6 0.3
v -0.5 1.8 0.3
v -0.4 1.1 0.3
v -0.4 1.2 0.3
v -0.4 1.3 0.3
v -0.4 1.4 0.3
v -0.4 1.6 0.3
v -0.4 1.7 0.3
v -0.4 1.8 0.3
v -0.4 1.9 0.3
v -0.3 1 0.3
v -0.3 1.1 0.3
v -0.3 1.2 0.3
v -0.3 1.8 0.3
v -0.3 1.9 0.3
v -0.3 2 0.3
v -0.2 1.9 0.3
v -0.1 1 0.3
v -0.1 1.1 0.3
v -0.1 1.9 0.3
v -0.1 2 0.3
v 0.1 1 0.3
v 0.1 1.1 0.3
v 0.1 1.9 0.3
v 0.1 2 0.3
v 0.2 1.9 0.3
v 0.2 2 0.3
v 0.3 1 0.3
v 0.3 1.1 0.3
v 0.3 1.2 0.3
v 0.3 1.8 0.3
v 0.3 1.9 0.3
v 0.3 2 0.3
v 0.4 1.1 0.3
v 0.4 1.2 0.3
v 0.4 1.4 0.3
v 0.4 1.6 0.3
v 0.4 1.8 0.3
v 0.4 1.9 0.3
v 0.5 1.2 0.3
v 0.5 1.4 0.3
v 0.5 1.6 0.3
v 0.5 1.8 0.3
v 0 2 0.0999999
v 0 2.2 0.0999999
v 0.1 2 0.0999999
v 0.1 2.1 0.0999999
v 0.2 2.1 0.0999999
v 0.2 2.2 0.0999999
v 0 2 -5.96046e-08
v 0 2.2 -5.96046e-08
v 0.1 2 -5.96046e-08
v 0.1 2.1 -5.96046e-08
v 0.2 2.1 -5.96046e-08
v 0.2 2.2 -5.96046e-08
v -0.5 1.2 -0.2
v -0.5 1.3 -0.2
v -0.5 1.4 -0.2
v -0.5 1.6 -0.2
v -0.5 1.7 -0.2
v -0.5 1.8 -0.2
v -0.4 1.1 -0.2
v -0.4 1.2 -0.2
v -0.4 1.3 -0.2
v -0.4 1.4 -0.2
v -0.4 1.6 -0.2
v -0.4 1.7 -0.2
v -0.4 1.8 -0.2
v -0.4 1.9 -0.2
v -0.3 1 -0.2
v -0.3 1.1 -0.2
v -0.3 1.2 -0.2
v -0.3 1.8 -0.2
v -0.3 1.9 -0.2
v -0.3 2 -0.2
v -0.2 1 -0.2
v -0.2 1.1 -0.2
v -0.2 1.9 -0.2
v -0.2 2 -0.2
v -0.1 1 -0.2
v -0.1 1.1 -0.2
v -0.1 1.9 -0.2
v -0.1 2 -0.2
v 0.1 1 -0.2
v 0.1 1.1 -0.2
v 0.1 1.9 -0.2
v 0.1 2 -0.2
v 0.2 1.1 -0.2
v 0.2 1.9 -0.2
v 0.2 2 -0.2
v 0.3 1 -0.2
v 0.3 1.1 -0.2
v 0.3 1.2 -0.2
v 0.3 1.8 -0.2
v 0.3 1.9 -0.2
v 0.3 2 -0.2
v 0.4 1.1 -0.2
v 0.4 1.2 -0.2
v 0.4 1.4 -0.2
v 0.4 1.6 -0.2
v 0.4 1.8 -0.2
v 0.4 1.9 -0.2
v 0.5 1.2 -0.2
v 0.5 1.4 -0.2
v 0.5 1.6 -0.2
v 0.5 1.8 -0.2
v -0.5 1.4 -0.3
v -0.5 1.6 -0.3
v -0.4 1.2 -0.3
v -0.4 1.3 -0.3
v -0.4 1.4 -0.3
v -0.4 1.6 -0.3
v -0.4 1.7 -0.3
v -0.4 1.8 -0.3
v -0.3 1.1 -0.3
v -0.3 1.2 -0.3
v -0.3 1.3 -0.3
v -0.3 1.7 -0.3
v -0.3 1.8 -0.3
v -0.3 1.9 -0.3
v -0.2 1.1 -0.3
v -0.2 1.2 -0.3
v -0.2 1.8 -0.3
v -0.2 1.9 -0.3
v -0.1 1 -0.3
v -0.1 1.1 -0.3
v -0.1 1.9 -0.3
v -0.1 2 -0.3
v 0.1 1 -0.3
v 0.1 1.1 -0.3
v 0.1 1.9 -0.3
v 0.1 2 -0.3
v 0.2 1.1 -0.3
v 0.2 1.2 -0.3
v 0.2 1.8 -0.3
v 0.2 1.9 -0.3
v 0.3 1.1 -0.3
v 0.3 1.2 -0.3
v 0.3 1.3 -0.3
v 0.3 1.7 -0.3
v 0.3 1.8 -0.3
v 0.3 1.9 -0.3
v 0.4 1.2 -0.3
v 0.4 1.3 -0.3
v 0.4 1.4 -0.3
v 0.4 1.5 -0.3
v 0.4 1.6 -0.3
v 0.4 1.7 -0.3
v 0.4 1.8 -0.3
v 0.5 1.4 -0.3
v 0.5 1.5 -0.3
v 0.5 1.6 -0.3
v -0.4 1.3 -0.4
v -0.4 1.7 -0.4
v -0.3 1.2 -0.4
v -0.3 1.3 -0.4
v -0.3 1.7 -0.4
v -0.3 1.8 -0.4
v -0.2 1.1 -0.4
v -0.2 1.2 -0.4
v -0.2 1.3 -0.4
v -0.2 1.4 -0.4
v -0.2 1.5 -0.4
v -0.2 1.6 -0.4
v -0.2 1.7 -0.4
v -0.2 1.8 -0.4
v -0.2 1.9 -0.4
v 0.1 1.1 -0.4
v 0.1 1.2 -0.4
v 0.1 1.7 -0.4
v 0.2 1.1 -0.4
v 0.2 1.2 -0.4
v 0.2 1.3 -0.4
v 0.2 1.5 -0.4
v 0.2 1.6 -0.4
v 0.2 1.7 -0.4
v 0.2 1.8 -0.4
v 0.2 1.9 -0.4
v 0.3 1.2 -0.4
v 0.3 1.3 -0.4
v 0.3 1.5 -0.4
v 0.3 1.6 -0.4
v 0.3 1.7 -0.4
v 0.3 1.8 -0.4
v 0.4 1.3 -0.4
v 0.4 1.7 -0.4
v -0.2 1.3 -0.5
v -0.2 1.4 -0.5
v -0.2 1.5 -0.5
v -0.2 1.6 -0.5
v -0.2 1.7 -0.5
v -0.1 1.4 -0.5
v -0.1 1.5 -0.5
v -0.1 1.6 -0.5
v 0.1 1.5 -0.5
v 0.1 1.6 -0.5
v 0.1 1.7 -0.5
v 0.2 1.3 -0.5
v 0.2 1.5 -0.5
v 0.2 1.6 -0.5
v 0.2 1.7 -0.5
v -0.1 1 0.4
v 0.1 1 0.4
v -0.3 1 0.3
v -0.1 1 0.3
v 0 1 0.3
v 0.1 1 0.3
v 0.3 1 0.3
v -0.1 1 0.2
v 0 1 0.2
v 0.1 1 0.2
v 0.2 1 0.0999999
v 0.3 1 0.0999999
v 0.2 1 -5.96046e-08
v 0.3 1 -5.96046e-08
v -0.3 1 -0.1
v -0.2 1 -0.1
v 0.2 1 -0.1
v 0.3 1 -0.1
v -0.3 1 -0.2
v -0.2 1 -0.2
v -0.1 1 -0.2
v 0.1 1 -0.2
v 0.3 1 -0.2
v -0.1 1 -0.3
v 0.1 1 -0.3
v -0.2 1.1 0.5
v 0 1.1 0.5
v 0.1 1.1 0.5
v 0.2 1.1 0.5
v -0.3 1.1 0.4
v -0.2 1.1 0.4
v -0.1 1.1 0.4
v 0 1.1 0.4
v 0.1 1.1 0.4
v 0.2 1.1 0.4
v 0.3 1.1 0.4
v -0.4 1.1 0.3
v -0.3 1.1 0.3
v -0.1 1.1 0.3
v 0.1 1.1 0.3
v 0.3 1.1 0.3
v 0.4 1.1 0.3
v 0.3 1.1 0.0999999
v 0.3 1.1 -5.96046e-08
v 0.4 1.1 -5.96046e-08
v -0.3 1.1 -0.1
v 0.3 1.1 -0.1
v 0.4 1.1 -0.1
v -0.4 1.1 -0.2
v -0.3 1.1 -0.2
v -0.2 1.1 -0.2
v -0.1 1.1 -0.2
v 0.1 1.1 -0.2
v 0.2 1.1 -0.2
v 0.3 1.1 -0.2
v 0.4 1.1 -0.2
v -0.3 1.1 -0.3
v -0.2 1.1 -0.3
v -0.1 1.1 -0.3
v 0.1 1.1 -0.3
v 0.2 1.1 -0.3
v 0.3 1.1 -0.3
v -0.2 1.1 -0.4
v 0.1 1.1 -0.4
v 0.2 1.1 -0.4
v -0.3 1.2 0.5
v -0.2 1.2 0.5
v 0.2 1.2 0.5
v 0.3 1.2 0.5
v -0.4 1.2 0.4
v -0.3 1.2 0.4
v -0.2 1.2 0.4
v 0.2 1.2 0.4
v 0.3 1.2 0.4
v 0.4 1.2 0.4
v -0.5 1.2 0.3
v -0.4 1.2 0.3
v -0.3 1.2 0.3
v 0.3 1.2 0.3
v 0.4 1.2 0.3
v 0.5 1.2 0.3
v -0.5 1.2 0.2
v -0.4 1.2 0.2
v 0.4 1.2 -5.96046e-08
v 0.4 1.2 -0.1
v -0.5 1.2 -0.2
v -0.4 1.2 -0.2
v -0.3 1.2 -0.2
v 0.3 1.2 -0.2
v 0.4 1.2 -0.2
v 0.5 1.2 -0.2
v -0.4 1.2 -0.3
v -0.3 1.2 -0.3
v -0.2 1.2 -0.3
v 0.2 1.2 -0.3
v 0.3 1.2 -0.3
v 0.4 1.2 -0.3
v -0.3 1.2 -0.4
v -0.2 1.2 -0.4
v 0.2 1.2 -0.4
v 0.3 1.2 -0.4
v -0.2 1.3 0.6
v 0.2 1.3 0.6
v -0.4 1.3 0.5
v -0.3 1.3 0.5
v -0.2 1.3 0.5
v 0.2 1.3 0.5
v 0.3 1.3 0.5
v 0.4 1.3 0.5
v -0.4 1.3 0.4
v -0.3 1.3 0.4
v 0.3 1.3 0.4
v 0.4 1.3 0.4
v -0.4 1.3 -0.3
v -0.3 1.3 -0.3
v 0.3 1.3 -0.3
v 0.4 1.3 -0.3
v -0.4 1.3 -0.4
v -0.3 1.3 -0.4
v -0.2 1.3 -0.4
v 0.2 1.3 -0.4
v 0.3 1.3 -0.4
v 0.4 1.3 -0.4
v -0.2 1.3 -0.5
v 0.2 1.3 -0.5
v -0.5 1.4 0.4
v -0.4 1.4 0.4
v 0.4 1.4 0.4
v 0.5 1.4 0.4
v -0.5 1.4 0.3
v -0.4 1.4 0.3
v 0.4 1.4 0.3
v 0.5 1.4 0.3
v -0.5 1.4 -0.2
v -0.4 1.4 -0.2
v 0.4 1.4 -0.2
v 0.5 1.4 -0.2
v -0.5 1.4 -0.3
v -0.4 1.4 -0.3
v 0.4 1.4 -0.3
v 0.5 1.4 -0.3
v 0.1 2.1 0.0999999
v 0.2 2.1 0.0999999
v 0.1 2.1 -5.96046e-08
v 0.2 2.1 -5.96046e-08
v -0.5 1.6 0.4
v -0.4 1.6 0.4
v 0.4 1.6 0.4
v 0.5 1.6 0.4
v -0.5 1.6 0.3
v -0.4 1.6 0.3
v 0.4 1.6 0.3
v 0.5 1.6 0.3
v -0.5 1.6 -0.2
v -0.4 1.6 -0.2
v 0.4 1.6 -0.2
v 0.5 1.6 -0.2
v -0.5 1.6 -0.3
v -0.4 1.6 -0.3
v 0.4 1.6 -0.3
v 0.5 1.6 -0.3
v -0.2 1.7 0.6
v 0.2 1.7 0.6
v -0.4 1.7 0.5
v -0.3 1.7 0.5
v -0.2 1.7 0.5
v 0.2 1.7 0.5
v 0.3 1.7 0.5
v 0.4 1.7 0.5
v -0.4 1.7 0.4
v -0.3 1.7 0.4
v 0.3 1.7 0.4
v 0.4 1.7 0.4
v -0.4 1.7 -0.3
v -0.3 1.7 -0.3
v 0.3 1.7 -0.3
v 0.4 1.7 -0.3
v -0.4 1.7 -0.4
v -0.3 1.7 -0.4
v -0.2 1.7 -0.4
v 0.1 1.7 -0.4
v 0.2 1.7 -0.4
v 0.3 1.7 -0.4
v 0.4 1.7 -0.4
v -0.2 1.7 -0.5
v 0.1 1.7 -0.5
v 0.2 1.7 -0.5
v -0.3 1.8 0.5
v -0.2 1.8 0.5
v 0.2 1.8 0.5
v 0.3 1.8 0.5
v -0.4 1.8 0.4
v -0.3 1.8 0.4
v -0.2 1.8 0.4
v 0.2 1.8 0.4
v 0.3 1.8 0.4
v 0.4 1.8 0.4
v -0.5 1.8 0.3
v -0.4 1.8 0.3
v -0.3 1.8 0.3
v 0.3 1.8 0.3
v 0.4 1.8 0.3
v 0.5 1.8 0.3
v -0.4 1.8 0.2
v -0.4 1.8 -5.96046e-08
v -0.5 1.8 -0.1
v -0.4 1.8 -0.1
v 0.4 1.8 -0.1
v -0.5 1.8 -0.2
v -0.4 1.8 -0.2
v -0.3 1.8 -0.2
v 0.3 1.8 -0.2
v 0.4 1.8 -0.2
v 0.5 1.8 -0.2
v -0.4 1.8 -0.3
v -0.3 1.8 -0.3
v -0.2 1.8 -0.3
v 0.2 1.8 -0.3
v 0.3 1.8 -0.3
v 0.4 1.8 -0.3
v -0.3 1.8 -0.4
v -0.2 1.8 -0.4
v 0.2 1.8 -0.4
v 0.3 1.8 -0.4
v -0.2 1.9 0.5
v 0.2 1.9 0.5
v -0.3 1.9 0.4
v -0.2 1.9 0.4
v -0.1 1.9 0.4
v 0.1 1.9 0.4
v 0.2 1.9 0.4
v 0.3 1.9 0.4
v -0.4 1.9 0.3
v -0.3 1.9 0.3
v -0.2 1.9 0.3
v -0.1 1.9 0.3
v 0.1 1.9 0.3
v 0.2 1.9 0.3
v 0.3 1.9 0.3
v 0.4 1.9 0.3
v -0.4 1.9 0.2
v -0.3 1.9 0.2
v 0.3 1.9 0.2
v -0.4 1.9 -5.96046e-08
v -0.3 1.9 -5.96046e-08
v -0.4 1.9 -0.1
v -0.3 1.9 -0.1
v 0.3 1.9 -0.1
v 0.4 1.9 -0.1
v -0.4 1.9 -0.2
v -0.3 1.9 -0.2
v -0.2 1.9 -0.2
v -0.1 1.9 -0.2
v 0.1 1.9 -0.2
v 0.2 1.9 -0.2
v 0.3 1.9 -0.2
v 0.4 1.9 -0.2
v -0.3 1.9 -0.3
v -0.2 1.9 -0.3
v -0.1 1.9 -0.3
v 0.1 1.9 -0.3
v 0.2 1.9 -0.3
v 0.3 1.9 -0.3
v -0.2 1.9 -0.4
v 0.2 1.9 -0.4
v -0.1 2 0.4
v 0.1 2 0.4
v -0.3 2 0.3
v -0.1 2 0.3
v 0.1 2 0.3
v 0.2 2 0.3
v 0.3 2 0.3
v 0.2 2 0.2
v 0.3 2 0.2
v -0.1 2 0.0999999
v 0 2 0.0999999
v 0.1 2 0.0999999
v -0.2 2 -5.96046e-08
v -0.1 2 -5.96046e-08
v 0 2 -5.96046e-08
v 0.1 2 -5.96046e-08
v -0.2 2 -0.1
v -0.1 2 -0.1
v 0 2 -0.1
v 0.2 2 -0.1
v 0.3 2 -0.1
v -0.3 2 -0.2
v -0.2 2 -0.2
v -0.1 2 -0.2
v 0 2 -0.2
v 0.1 2 -0.2
v 0.2 2 -0.2
v 0.3 2 -0.2
v -0.1 2 -0.3
v 0.1 2 -0.3
v 0 2.2 0.0999999
v 0.2 2.2 0.0999999
v 0 2.2 -5.96046e-08
v 0.2 2.2 -5.96046e-08

# faces
f 4/5/1 3/5/1 2/5/1
f 5/5/1 3/5/1 4/5/1
f 6/5/1 3/5/1 5/5/1
f 8/3/1 2/3/1 1/3/1
f 9/5/1 4/5/1 2/5/1
f 9/3/1 2/3/1 8/3/1
f 10/3/1 5/3/1 4/3/1
f 10/5/1 4/5/1 9/5/1
f 11/2/1 6/2/1 5/2/1
f 11/3/1 5/3/1 10/3/1
f 12/2/1 6/2/1 11/2/1
f 14/3/1 12/3/1 11/3/1
f 14/5/1 8/5/1 7/5/1
f 14/5/1 11/5/1 10/5/1
f 14/5/1 9/5/1 8/5/1
f 14/5/1 10/5/1 9/5/1
f 15/5/1 13/5/1 12/5/1
f 15/3/1 12/3/1 14/3/1
f 16/5/1 14/5/1 7/5/1
f 16/5/1 15/5/1 14/5/1
f 17/5/1 15/5/1 16/5/1
f 18/5/1 13/5/1 15/5/1
f 18/5/1 15/5/1 17/5/1
f 19/5/1 13/5/1 18/5/1
f 20/5/1 18/5/1 17/5/1
f 21/5/1 18/5/1 20/5/1
f 22/5/1 20/5/1 17/5/1
f 23/3/1 21/3/1 20/3/1
f 23/5/1 20/5/1 22/5/1
f 24/3/1 21/3/1 23/3/1
f 28/5/1 26/5/1 25/5/1
f 29/5/1 26/5/1 28/5/1
f 30/5/1 26/5/1 29/5/1
f 33/5/1 28/5/1 27/5/1
f 34/5/1 28/5/1 33/5/1
f 35/5/1 31/5/1 30/5/1
f 36/5/1 31/5/1 35/5/1
f 38/2/1 34/2/1 33/2/1
f 38/5/1 33/5/1 32/5/1
f 39/2/1 34/2/1 38/2/1
f 40/5/1 37/5/1 36/5/1
f 40/5/1 36/5/1 35/5/1
f 41/5/1 37/5/1 40/5/1
f 42/5/1 38/5/1 32/5/1
f 45/5/1 37/5/1 41/5/1
f 46/5/1 43/5/1 42/5/1
f 46/5/1 42/5/1 32/5/1
f 47/5/1 43/5/1 46/5/1
f 48/5/1 43/5/1 47/5/1
f 49/5/1 45/5/1 44/5/1
f 50/5/1 37/5/1 45/5/1
f 50/5/1 45/5/1 49/5/1
f 51/5/1 37/5/1 50/5/1
f 52/3/1 48/3/1 47/3/1
f 53/3/1 48/3/1 52/3/1
f 57/2/1 50/2/1 49/2/1
f 58/2/1 50/2/1 57/2/1
f 59/2/1 54/2/1 53/2/1
f 60/5/1 55/5/1 54/5/1
f 60/2/1 54/2/1 59/2/1
f 61/3/1 56/3/1 55/3/1
f 61/5/1 55/5/1 60/5/1
f 62/5/1 57/5/1 56/5/1
f 62/3/1 56/3/1 61/3/1
f 63/5/1 57/5/1 62/5/1
f 68/5/1 65/5/1 64/5/1
f 69/2/1 66/2/1 65/2/1
f 69/5/1 65/5/1 68/5/1
f 70/2/1 66/2/1 69/2/1
f 73/5/1 68/5/1 67/5/1
f 74/5/1 68/5/1 73/5/1
f 75/3/1 71/3/1 70/3/1
f 76/3/1 71/3/1 75/3/1
f 78/5/1 73/5/1 72/5/1
f 79/5/1 73/5/1 78/5/1
f 80/5/1 77/5/1 76/5/1
f 81/5/1 77/5/1 80/5/1
f 86/5/1 83/5/1 82/5/1
f 87/5/1 83/5/1 86/5/1
f 90/5/1 85/5/1 84/5/1
f 91/5/1 85/5/1 90/5/1
f 92/2/1 88/2/1 87/2/1
f 93/2/1 88/2/1 92/2/1
f 97/5/1 90/5/1 89/5/1
f 98/5/1 90/5/1 97/5/1
f 99/5/1 96/5/1 95/5/1
f 99/5/1 97/5/1 96/5/1
f 99/5/1 94/5/1 93/5/1
f 99/5/1 95/5/1 94/5/1
f 100/5/1 97/5/1 99/5/1
f 105/5/1 102/5/1 101/5/1
f 106/5/1 102/5/1 105/5/1
f 107/5/1 104/5/1 103/5/1
f 108/5/1 104/5/1 107/5/1
f 113/5/1 110/5/1 109/5/1
f 114/5/1 110/5/1 113/5/1
f 115/5/1 112/5/1 111/5/1
f 116/5/1 112/5/1 115/5/1
f 117/3/1 114/3/1 113/3/1
f 118/3/1 114/3/1 117/3/1
f 119/2/1 116/2/1 115/2/1
f 120/2/1 116/2/1 119/2/1
f 121/2/1 118/2/1 117/2/1
f 122/2/1 118/2/1 121/2/1
f 123/3/1 120/3/1 119/3/1
f 124/3/1 120/3/1 123/3/1
f 125/5/1 122/5/1 121/5/1
f 126/5/1 122/5/1 125/5/1
f 127/5/1 124/5/1 123/5/1
f 128/5/1 124/5/1 127/5/1
f 133/5/1 130/5/1 129/5/1
f 134/5/1 130/5/1 133/5/1
f 135/5/1 132/5/1 131/5/1
f 136/5/1 132/5/1 135/5/1
f 141/5/1 138/5/1 137/5/1
f 142/5/1 138/5/1 141/5/1
f 143/5/1 140/5/1 139/5/1
f 144/5/1 140/5/1 143/5/1
f 149/5/1 146/5/1 145/5/1
f 150/5/1 146/5/1 149/5/1
f 151/5/1 148/5/1 147/5/1
f 152/5/1 148/5/1 151/5/1
f 155/1/1 154/1/1 153/1/1
f 156/1/1 154/1/1 155/1/1
f 157/5/2 158/5/2 161/5/2
f 161/5/2 158/5/2 162/5/2
f 159/5/2 160/5/2 163/5/2
f 163/5/2 160/5/2 164/5/2
f 165/5/2 166/5/2 169/5/2
f 169/5/2 166/5/2 170/5/2
f 167/5/2 168/5/2 173/5/2
f 173/5/2 168/5/2 174/5/2
f 171/1/2 172/1/2 175/1/2
f 175/1/2 172/1/2 176/1/2
f 177/2/2 178/2/2 181/2/2
f 181/2/2 178/2/2 182/2/2
f 179/3/2 180/3/2 183/3/2
f 183/3/2 180/3/2 184/3/2
f 187/5/2 188/5/2 189/5/2
f 189/5/2 188/5/2 190/5/2
f 189/3/2 190/3/2 191/3/2
f 191/3/2 190/3/2 192/3/2
f 185/5/2 186/5/2 193/5/2
f 193/5/2 186/5/2 194/5/2
f 191/2/2 192/2/2 195/2/2
f 195/2/2 192/2/2 196/2/2
f 197/5/2 198/5/2 201/5/2
f 201/5/2 198/5/2 202/5/2
f 199/5/2 200/5/2 203/5/2
f 203/5/2 200/5/2 204/5/2
f 205/1/2 206/1/2 207/1/2
f 207/1/2 206/1/2 208/1/2
f 209/5/2 210/5/2 215/5/2
f 210/3/2 211/3/2 216/3/2
f 215/5/2 210/5/2 216/5/2
f 211/2/2 212/2/2 217/2/2
f 216/3/2 211/3/2 217/3/2
f 212/5/2 213/5/2 218/5/2
f 217/2/2 212/2/2 218/2/2
f 218/5/2 213/5/2 219/5/2
f 214/5/2 215/5/2 222/5/2
f 222/5/2 215/5/2 223/5/2
f 219/5/2 220/5/2 224/5/2
f 224/5/2 220/5/2 225/5/2
f 221/3/2 222/3/2 227/3/2
f 227/3/2 222/3/2 228/3/2
f 225/5/2 226/5/2 229/5/2
f 229/5/2 226/5/2 230/5/2
f 231/5/2 232/5/2 235/5/2
f 235/5/2 232/5/2 236/5/2
f 233/5/2 234/5/2 239/5/2
f 239/5/2 234/5/2 240/5/2
f 236/2/2 237/2/2 241/2/2
f 241/2/2 237/2/2 242/2/2
f 238/2/2 239/2/2 245/2/2
f 245/2/2 239/2/2 246/2/2
f 242/3/2 243/3/2 247/3/2
f 243/5/2 244/5/2 248/5/2
f 247/3/2 243/3/2 248/3/2
f 244/3/2 245/3/2 249/3/2
f 248/5/2 244/5/2 249/5/2
f 249/3/2 245/3/2 250/3/2
f 251/5/2 252/5/2 256/5/2
f 252/3/2 253/3/2 257/3/2
f 256/5/2 252/5/2 257/5/2
f 253/5/2 254/5/2 258/5/2
f 257/3/2 253/3/2 258/3/2
f 258/5/2 254/5/2 259/5/2
f 255/5/2 256/5/2 262/5/2
f 259/5/2 260/5/2 263/5/2
f 261/5/2 262/5/2 265/5/2
f 262/5/2 256/5/2 265/5/2
f 265/5/2 256/5/2 266/5/2
f 263/5/2 264/5/2 267/5/2
f 259/5/2 263/5/2 267/5/2
f 267/5/2 264/5/2 268/5/2
f 268/5/2 264/5/2 269/5/2
f 261/5/2 265/5/2 270/5/2
f 269/5/2 264/5/2 273/5/2
f 270/5/2 271/5/2 274/5/2
f 261/5/2 270/5/2 274/5/2
f 274/5/2 271/5/2 275/5/2
f 272/5/2 273/5/2 276/5/2
f 273/5/2 264/5/2 276/5/2
f 276/5/2 264/5/2 277/5/2
f 275/5/2 271/5/2 278/5/2
f 278/5/2 271/5/2 279/5/2
f 272/5/2 276/5/2 281/5/2
f 281/5/2 276/5/2 282/5/2
f 279/5/2 280/5/2 283/5/2
f 280/3/2 281/3/2 284/3/2
f 283/5/2 280/5/2 284/5/2
f 284/3/2 281/3/2 285/3/2
f 286/5/2 287/5/2 289/5/2
f 289/5/2 287/5/2 290/5/2
f 288/5/2 289/5/2 292/5/2
f 289/5/2 290/5/2 292/5/2
f 292/5/2 290/5/2 293/5/2
f 293/5/2 290/5/2 294/5/2
f 290/3/2 291/3/2 295/3/2
f 294/5/2 290/5/2 295/5/2
f 295/3/2 291/3/2 296/3/2
f 288/5/2 292/5/2 297/5/2
f 292/3/2 293/3/2 298/3/2
f 297/5/2 292/5/2 298/5/2
f 293/2/2 294/2/2 299/2/2
f 298/3/2 293/3/2 299/3/2
f 294/5/2 295/5/2 300/5/2
f 299/2/2 294/2/2 300/2/2
f 295/2/2 296/2/2 301/2/2
f 300/5/2 295/5/2 301/5/2
f 301/2/2 296/2/2 302/2/2
f 298/5/2 299/5/2 303/5/2
f 299/3/2 300/3/2 303/3/2
f 300/5/2 301/5/2 304/5/2
f 303/3/2 300/3/2 304/3/2
f 298/5/2 303/5/2 305/5/2
f 303/5/2 304/5/2 305/5/2
f 304/5/2 301/5/2 306/5/2
f 305/5/2 304/5/2 306/5/2
f 312/5/3 308/5/3 307/5/3
f 312/3/3 309/3/3 308/3/3
f 313/2/3 310/2/3 309/2/3
f 313/3/3 309/3/3 312/3/3
f 314/5/3 311/5/3 310/5/3
f 314/2/3 310/2/3 313/2/3
f 315/5/3 313/5/3 312/5/3
f 315/3/3 314/3/3 313/3/3
f 316/5/3 311/5/3 314/5/3
f 316/3/3 314/3/3 315/3/3
f 317/5/3 315/5/3 312/5/3
f 317/5/3 312/5/3 307/5/3
f 317/5/3 316/5/3 315/5/3
f 318/5/3 311/5/3 316/5/3
f 318/5/3 316/5/3 317/5/3
f 322/5/3 320/5/3 319/5/3
f 323/5/3 320/5/3 322/5/3
f 326/5/3 322/5/3 321/5/3
f 326/5/3 324/5/3 323/5/3
f 326/5/3 323/5/3 322/5/3
f 327/5/3 324/5/3 326/5/3
f 328/5/3 324/5/3 327/5/3
f 329/5/3 324/5/3 328/5/3
f 330/5/3 324/5/3 329/5/3
f 331/5/3 324/5/3 330/5/3
f 332/5/3 324/5/3 331/5/3
f 334/5/3 326/5/3 325/5/3
f 334/5/3 327/5/3 326/5/3
f 335/5/3 327/5/3 334/5/3
f 336/3/3 335/3/3 334/3/3
f 337/5/3 327/5/3 335/5/3
f 337/3/3 335/3/3 336/3/3
f 338/2/3 337/2/3 336/2/3
f 339/5/3 327/5/3 337/5/3
f 339/2/3 337/2/3 338/2/3
f 340/5/3 327/5/3 339/5/3
f 341/5/3 333/5/3 332/5/3
f 341/5/3 332/5/3 331/5/3
f 342/5/3 333/5/3 341/5/3
f 343/5/3 333/5/3 342/5/3
f 344/3/3 340/3/3 339/3/3
f 345/5/3 342/5/3 341/5/3
f 345/3/3 340/3/3 344/3/3
f 345/5/3 341/5/3 340/5/3
f 346/5/3 342/5/3 345/5/3
f 347/5/3 342/5/3 346/5/3
f 348/5/3 346/5/3 345/5/3
f 349/5/3 346/5/3 348/5/3
f 354/5/3 351/5/3 350/5/3
f 355/5/3 351/5/3 354/5/3
f 359/5/3 353/5/3 352/5/3
f 360/5/3 353/5/3 359/5/3
f 361/3/3 357/3/3 356/3/3
f 362/3/3 357/3/3 361/3/3
f 364/5/3 359/5/3 358/5/3
f 365/5/3 359/5/3 364/5/3
f 366/2/3 363/2/3 362/2/3
f 367/2/3 363/2/3 366/2/3
f 372/5/3 369/5/3 368/5/3
f 373/5/3 372/5/3 368/5/3
f 374/5/3 372/5/3 373/5/3
f 375/5/3 371/5/3 370/5/3
f 376/5/3 371/5/3 375/5/3
f 381/5/3 378/5/3 377/5/3
f 382/5/3 378/5/3 381/5/3
f 385/2/3 380/2/3 379/2/3
f 386/2/3 380/2/3 385/2/3
f 387/5/3 383/5/3 382/5/3
f 388/5/3 383/5/3 387/5/3
f 391/5/3 385/5/3 384/5/3
f 392/5/3 385/5/3 391/5/3
f 393/5/3 390/5/3 389/5/3
f 394/5/3 390/5/3 393/5/3
f 400/3/3 396/3/3 395/3/3
f 401/3/3 396/3/3 400/3/3
f 402/3/3 396/3/3 401/3/3
f 403/5/3 398/5/3 397/5/3
f 404/5/3 398/5/3 403/5/3
f 405/5/3 398/5/3 404/5/3
f 408/5/3 400/5/3 399/5/3
f 409/5/3 400/5/3 408/5/3
f 410/2/3 406/2/3 405/2/3
f 411/2/3 406/2/3 410/2/3
f 413/5/3 412/5/3 411/5/3
f 414/5/3 408/5/3 407/5/3
f 415/5/3 408/5/3 414/5/3
f 416/5/3 412/5/3 413/5/3
f 417/5/3 412/5/3 416/5/3
f 422/5/3 421/5/3 420/5/3
f 423/5/3 421/5/3 422/5/3
f 424/5/3 419/5/3 418/5/3
f 425/5/3 419/5/3 424/5/3
f 428/3/3 423/3/3 422/3/3
f 429/3/3 423/3/3 428/3/3
f 430/5/3 426/5/3 425/5/3
f 431/5/3 426/5/3 430/5/3
f 434/5/3 428/5/3 427/5/3
f 435/5/3 428/5/3 434/5/3
f 436/5/3 432/5/3 431/5/3
f 437/5/3 432/5/3 436/5/3
f 438/5/3 434/5/3 433/5/3
f 439/5/3 434/5/3 438/5/3
f 442/1/3 441/1/3 440/1/3
f 443/1/3 441/1/3 442/1/3
f 444/1/3 441/1/3 443/1/3
f 445/1/3 441/1/3 444/1/3
f 446/1/4 447/1/4 448/1/4
f 448/1/4 447/1/4 449/1/4
f 449/1/4 447/1/4 450/1/4
f 450/1/4 447/1/4 451/1/4
f 452/5/4 453/5/4 459/5/4
f 453/2/4 454/2/4 460/2/4
f 459/5/4 453/5/4 460/5/4
f 460/2/4 454/2/4 461/2/4
f 455/5/4 456/5/4 462/5/4
f 456/3/4 457/3/4 463/3/4
f 462/5/4 456/5/4 463/5/4
f 463/3/4 457/3/4 464/3/4
f 458/5/4 459/5/4 467/5/4
f 467/5/4 459/5/4 468/5/4
f 464/5/4 465/5/4 469/5/4
f 469/5/4 465/5/4 470/5/4
f 466/2/4 467/2/4 472/2/4
f 472/2/4 467/2/4 473/2/4
f 470/5/4 471/5/4 474/5/4
f 474/5/4 471/5/4 475/5/4
f 472/5/4 473/5/4 476/5/4
f 476/5/4 473/5/4 477/5/4
f 474/3/4 475/3/4 478/3/4
f 478/3/4 475/3/4 479/3/4
f 480/5/4 481/5/4 484/5/4
f 482/5/4 483/5/4 485/5/4
f 485/5/4 483/5/4 486/5/4
f 480/5/4 484/5/4 487/5/4
f 487/5/4 484/5/4 488/5/4
f 485/3/4 486/3/4 491/3/4
f 491/3/4 486/3/4 492/3/4
f 488/5/4 489/5/4 493/5/4
f 493/5/4 489/5/4 494/5/4
f 490/3/4 491/3/4 497/3/4
f 497/3/4 491/3/4 498/3/4
f 494/5/4 495/5/4 499/5/4
f 499/5/4 495/5/4 500/5/4
f 496/5/4 497/5/4 501/5/4
f 501/5/4 497/5/4 502/5/4
f 503/5/4 504/5/4 507/5/4
f 507/5/4 504/5/4 508/5/4
f 505/5/4 506/5/4 512/5/4
f 512/5/4 506/5/4 513/5/4
f 509/2/4 510/2/4 514/2/4
f 514/2/4 510/2/4 515/2/4
f 511/3/4 512/3/4 517/3/4
f 517/3/4 512/3/4 518/3/4
f 515/5/4 516/5/4 519/5/4
f 519/5/4 516/5/4 520/5/4
f 521/5/4 522/5/4 525/5/4
f 525/5/4 522/5/4 526/5/4
f 523/5/4 524/5/4 527/5/4
f 527/5/4 524/5/4 528/5/4
f 529/5/4 530/5/4 533/5/4
f 533/5/4 530/5/4 534/5/4
f 531/2/4 532/2/4 537/2/4
f 537/2/4 532/2/4 538/2/4
f 534/5/4 535/5/4 539/5/4
f 539/5/4 535/5/4 540/5/4
f 536/5/4 537/5/4 544/5/4
f 544/5/4 537/5/4 545/5/4
f 541/3/4 542/3/4 546/3/4
f 542/2/4 543/2/4 547/2/4
f 546/3/4 542/3/4 547/3/4
f 547/2/4 543/2/4 548/2/4
f 549/5/4 550/5/4 552/5/4
f 552/5/4 550/5/4 553/5/4
f 551/5/4 552/5/4 556/5/4
f 553/5/4 554/5/4 556/5/4
f 552/5/4 553/5/4 556/5/4
f 556/5/4 554/5/4 557/5/4
f 557/5/4 554/5/4 558/5/4
f 558/5/4 554/5/4 559/5/4
f 559/5/4 554/5/4 560/5/4
f 560/5/4 554/5/4 561/5/4
f 561/5/4 554/5/4 562/5/4
f 555/5/4 556/5/4 564/5/4
f 556/5/4 557/5/4 564/5/4
f 564/5/4 557/5/4 565/5/4
f 562/5/4 563/5/4 566/5/4
f 561/5/4 562/5/4 566/5/4
f 564/3/4 565/3/4 567/3/4
f 565/5/4 557/5/4 568/5/4
f 567/3/4 565/3/4 568/3/4
f 568/5/4 557/5/4 569/5/4
f 566/5/4 563/5/4 572/5/4
f 572/5/4 563/5/4 573/5/4
f 573/5/4 563/5/4 574/5/4
f 568/5/4 569/5/4 575/5/4
f 569/5/4 570/5/4 575/5/4
f 575/5/4 570/5/4 576/5/4
f 570/3/4 571/3/4 577/3/4
f 576/5/4 570/5/4 577/5/4
f 572/5/4 573/5/4 578/5/4
f 577/3/4 571/3/4 578/3/4
f 571/5/4 572/5/4 578/5/4
f 578/5/4 573/5/4 579/5/4
f 579/5/4 573/5/4 580/5/4
f 576/5/4 577/5/4 581/5/4
f 578/5/4 579/5/4 581/5/4
f 577/5/4 578/5/4 581/5/4
f 581/5/4 579/5/4 582/5/4
f 583/5/4 584/5/4 588/5/4
f 584/2/4 585/2/4 588/2/4
f 585/3/4 586/3/4 589/3/4
f 588/2/4 585/2/4 589/2/4
f 586/5/4 587/5/4 590/5/4
f 589/3/4 586/3/4 590/3/4
f 588/5/4 589/5/4 591/5/4
f 589/5/4 590/5/4 591/5/4
f 590/5/4 587/5/4 592/5/4
f 591/5/4 590/5/4 592/5/4
f 592/5/4 587/5/4 593/5/4
f 588/5/4 591/5/4 594/5/4
f 583/5/4 588/5/4 594/5/4
f 591/3/4 592/3/4 595/3/4
f 594/5/4 591/5/4 595/5/4
f 592/2/4 593/2/4 596/2/4
f 595/3/4 592/3/4 596/3/4
f 596/2/4 593/2/4 597/2/4
f 601/5/5 599/5/5 598/5/5
f 602/5/5 599/5/5 601/5/5
f 603/5/5 599/5/5 602/5/5
f 605/5/5 601/5/5 600/5/5
f 605/3/5 602/3/5 601/3/5
f 606/2/5 603/2/5 602/2/5
f 606/3/5 602/3/5 605/3/5
f 607/5/5 604/5/5 603/5/5
f 607/2/5 603/2/5 606/2/5
f 608/5/5 606/5/5 605/5/5
f 608/5/5 604/5/5 607/5/5
f 608/5/5 607/5/5 606/5/5
f 609/5/5 604/5/5 608/5/5
f 610/5/5 608/5/5 605/5/5
f 610/3/5 609/3/5 608/3/5
f 611/3/5 609/3/5 610/3/5
f 612/5/5 605/5/5 600/5/5
f 612/5/5 610/5/5 605/5/5
f 613/5/5 610/5/5 612/5/5
f 614/2/5 611/2/5 610/2/5
f 614/5/5 610/5/5 613/5/5
f 615/2/5 611/2/5 614/2/5
f 616/2/5 613/2/5 612/2/5
f 617/5/5 614/5/5 613/5/5
f 617/2/5 613/2/5 616/2/5
f 617/5/5 615/5/5 614/5/5
f 618/5/5 615/5/5 617/5/5
f 619/5/5 615/5/5 618/5/5
f 620/5/5 615/5/5 619/5/5
f 621/5/5 619/5/5 618/5/5
f 622/5/5 619/5/5 621/5/5
f 628/5/5 624/5/5 623/5/5
f 629/5/5 624/5/5 628/5/5
f 630/3/5 625/3/5 624/3/5
f 630/5/5 624/5/5 629/5/5
f 631/2/5 626/2/5 625/2/5
f 631/3/5 625/3/5 630/3/5
f 632/2/5 626/2/5 631/2/5
f 635/5/5 629/5/5 628/5/5
f 635/5/5 628/5/5 627/5/5
f 636/5/5 629/5/5 635/5/5
f 637/5/5 633/5/5 632/5/5
f 637/5/5 632/5/5 631/5/5
f 638/5/5 633/5/5 637/5/5
f 640/5/5 639/5/5 638/5/5
f 641/5/5 639/5/5 640/5/5
f 642/5/5 639/5/5 641/5/5
f 643/5/5 635/5/5 634/5/5
f 644/3/5 642/3/5 641/3/5
f 645/3/5 642/3/5 644/3/5
f 646/5/5 643/5/5 634/5/5
f 647/5/5 643/5/5 646/5/5
f 652/5/5 645/5/5 644/5/5
f 653/5/5 645/5/5 652/5/5
f 654/3/5 648/3/5 647/3/5
f 654/3/5 649/3/5 648/3/5
f 655/3/5 649/3/5 654/3/5
f 656/3/5 649/3/5 655/3/5
f 657/2/5 651/2/5 650/2/5
f 658/5/5 652/5/5 651/5/5
f 658/2/5 651/2/5 657/2/5
f 659/5/5 652/5/5 658/5/5
f 660/5/5 656/5/5 655/5/5
f 660/5/5 657/5/5 656/5/5
f 661/3/5 658/3/5 657/3/5
f 661/5/5 657/5/5 660/5/5
f 662/3/5 658/3/5 661/3/5
f 668/5/5 664/5/5 663/5/5
f 669/5/5 664/5/5 668/5/5
f 670/3/5 666/3/5 665/3/5
f 671/3/5 666/3/5 670/3/5
f 674/5/5 668/5/5 667/5/5
f 675/5/5 668/5/5 674/5/5
f 676/5/5 672/5/5 671/5/5
f 677/5/5 672/5/5 676/5/5
f 679/3/5 674/3/5 673/3/5
f 680/3/5 674/3/5 679/3/5
f 681/5/5 678/5/5 677/5/5
f 682/5/5 678/5/5 681/5/5
f 683/5/5 680/5/5 679/5/5
f 684/5/5 680/5/5 683/5/5
f 687/5/5 678/5/5 682/5/5
f 688/5/5 678/5/5 687/5/5
f 689/5/5 685/5/5 684/5/5
f 690/5/5 685/5/5 689/5/5
f 693/5/5 687/5/5 686/5/5
f 694/5/5 687/5/5 693/5/5
f 695/5/5 691/5/5 690/5/5
f 696/5/5 691/5/5 695/5/5
f 697/5/5 693/5/5 692/5/5
f 698/5/5 693/5/5 697/5/5
f 703/5/5 700/5/5 699/5/5
f 704/5/5 700/5/5 703/5/5
f 707/5/5 702/5/5 701/5/5
f 708/5/5 702/5/5 707/5/5
f 709/5/5 706/5/5 705/5/5
f 710/5/5 706/5/5 709/5/5
f 715/5/5 712/5/5 711/5/5
f 716/5/5 712/5/5 715/5/5
f 719/5/5 714/5/5 713/5/5
f 720/5/5 714/5/5 719/5/5
f 721/5/5 718/5/5 717/5/5
f 722/5/5 718/5/5 721/5/5
f 727/5/5 724/5/5 723/5/5
f 728/5/5 724/5/5 727/5/5
f 729/5/5 726/5/5 725/5/5
f 730/5/5 726/5/5 729/5/5
f 735/5/5 732/5/5 731/5/5
f 736/5/5 732/5/5 735/5/5
f 737/3/5 734/3/5 733/3/5
f 738/3/5 734/3/5 737/3/5
f 741/1/5 740/1/5 739/1/5
f 742/1/5 740/1/5 741/1/5
f 743/5/6 744/5/6 747/5/6
f 747/5/6 744/5/6 748/5/6
f 745/5/6 746/5/6 749/5/6
f 749/5/6 746/5/6 750/5/6
f 751/5/6 752/5/6 755/5/6
f 755/5/6 752/5/6 756/5/6
f 753/2/6 754/2/6 757/2/6
f 757/2/6 754/2/6 758/2/6
f 759/5/6 760/5/6 763/5/6
f 763/5/6 760/5/6 764/5/6
f 761/5/6 762/5/6 767/5/6
f 767/5/6 762/5/6 768/5/6
f 765/5/6 766/5/6 769/5/6
f 769/5/6 766/5/6 770/5/6
f 771/5/6 772/5/6 775/5/6
f 775/5/6 772/5/6 776/5/6
f 773/5/6 774/5/6 780/5/6
f 780/5/6 774/5/6 781/5/6
f 777/5/6 778/5/6 782/5/6
f 778/2/6 779/2/6 783/2/6
f 782/5/6 778/5/6 783/5/6
f 783/2/6 779/2/6 784/2/6
f 785/5/6 786/5/6 790/5/6
f 790/5/6 786/5/6 791/5/6
f 787/5/6 788/5/6 792/5/6
f 792/5/6 788/5/6 793/5/6
f 789/3/6 790/3/6 796/3/6
f 796/3/6 790/3/6 797/3/6
f 793/5/6 794/5/6 798/5/6
f 798/5/6 794/5/6 799/5/6
f 795/5/6 796/5/6 801/5/6
f 795/5/6 801/5/6 802/5/6
f 795/5/6 802/5/6 803/5/6
f 803/5/6 802/5/6 804/5/6
f 799/5/6 800/5/6 805/5/6
f 803/3/6 804/3/6 806/3/6
f 806/3/6 804/3/6 807/3/6
f 805/5/6 800/5/6 810/5/6
f 810/5/6 800/5/6 811/5/6
f 807/2/6 808/2/6 812/2/6
f 812/2/6 808/2/6 813/2/6
f 809/5/6 810/5/6 816/5/6
f 816/5/6 810/5/6 817/5/6
f 813/5/6 814/5/6 818/5/6
f 818/5/6 814/5/6 819/5/6
f 815/5/6 816/5/6 820/5/6
f 820/5/6 816/5/6 821/5/6
f 822/5/6 823/5/6 825/5/6
f 825/5/6 823/5/6 826/5/6
f 826/5/6 823/5/6 827/5/6
f 827/5/6 823/5/6 828/5/6
f 824/2/6 825/2/6 831/2/6
f 825/5/6 826/5/6 832/5/6
f 831/2/6 825/2/6 832/2/6
f 832/5/6 826/5/6 833/5/6
f 827/3/6 828/3/6 834/3/6
f 828/2/6 829/2/6 835/2/6
f 834/3/6 828/3/6 835/3/6
f 835/2/6 829/2/6 836/2/6
f 830/2/6 831/2/6 838/2/6
f 838/2/6 831/2/6 839/2/6
f 836/5/6 837/5/6 840/5/6
f 838/5/6 839/5/6 841/5/6
f 841/5/6 839/5/6 842/5/6
f 841/3/6 842/3/6 843/3/6
f 843/3/6 842/3/6 844/3/6
f 840/5/6 837/5/6 845/5/6
f 845/5/6 837/5/6 846/5/6
f 843/5/6 844/5/6 847/5/6
f 847/5/6 844/5/6 848/5/6
f 845/3/6 846/3/6 853/3/6
f 853/3/6 846/3/6 854/3/6
f 848/5/6 849/5/6 855/5/6
f 849/5/6 850/5/6 855/5/6
f 855/5/6 850/5/6 856/5/6
f 856/5/6 850/5/6 857/5/6
f 851/5/6 852/5/6 858/5/6
f 852/2/6 853/2/6 859/2/6
f 858/5/6 852/5/6 859/5/6
f 859/2/6 853/2/6 860/2/6
f 856/5/6 857/5/6 861/5/6
f 857/5/6 858/5/6 861/5/6
f 858/5/6 859/5/6 861/5/6
f 861/5/6 859/5/6 862/5/6
f 863/5/6 864/5/6 866/5/6
f 866/5/6 864/5/6 867/5/6
f 865/5/6 866/5/6 870/5/6
f 868/3/6 869/3/6 870/3/6
f 867/5/6 868/5/6 870/5/6
f 866/5/6 867/5/6 870/5/6
f 870/3/6 869/3/6 871/3/6
f 865/5/6 870/5/6 872/5/6
f 870/5/6 871/5/6 872/5/6
f 872/5/6 871/5/6 873/5/6
f 873/5/6 871/5/6 874/5/6
f 865/5/6 872/5/6 875/5/6
f 872/1/6 873/1/6 876/1/6
f 875/5/6 872/5/6 876/5/6
f 876/1/6 873/1/6 877/1/6
f 874/5/6 871/5/6 878/5/6
f 865/5/6 875/5/6 879/5/6
f 875/2/6 876/2/6 879/2/6
f 876/5/6 877/5/6 880/5/6
f 879/2/6 876/2/6 880/2/6
f 877/5/6 878/5/6 880/5/6
f 880/5/6 878/5/6 881/5/6
f 878/5/6 871/5/6 882/5/6
f 881/5/6 878/5/6 882/5/6
f 882/5/6 871/5/6 883/5/6
f 865/5/6 879/5/6 884/5/6
f 880/3/6 881/3/6 885/3/6
f 884/5/6 879/5/6 885/5/6
f 879/3/6 880/3/6 885/3/6
f 885/3/6 881/3/6 886/3/6
f 881/5/6 882/5/6 887/5/6
f 886/3/6 881/3/6 887/3/6
f 887/5/6 882/5/6 888/5/6
f 882/3/6 883/3/6 889/3/6
f 888/5/6 882/5/6 889/5/6
f 889/3/6 883/3/6 890/3/6
f 887/5/6 888/5/6 891/5/6
f 886/5/6 887/5/6 891/5/6
f 891/5/6 888/5/6 892/5/6
f 893/1/6 894/1/6 895/1/6
f 895/1/6 894/1/6 896/1/6
